<svg width="664" height="532" viewBox="0 0 664 532" fill="none" xmlns="http://www.w3.org/2000/svg">
    <g clip-path="url(#clip0)">
        <g opacity="0.75">
            <path opacity="0.75" d="M539.361 124.122C573.676 124.122 601.493 96.3364 601.493 62.0611C601.493 27.7857 573.676 0 539.361 0C505.046 0 477.229 27.7857 477.229 62.0611C477.229 96.3364 505.046 124.122 539.361 124.122Z" fill="#8CB3FB"/>
            <path opacity="0.75" d="M539.361 107.21C564.322 107.21 584.558 86.996 584.558 62.0613C584.558 37.1266 564.322 16.9131 539.361 16.9131C514.399 16.9131 494.164 37.1266 494.164 62.0613C494.164 86.996 514.399 107.21 539.361 107.21Z" fill="#91C1FC"/>
            <path opacity="0.75" d="M539.36 93.9882C557.018 93.9882 571.332 79.6941 571.332 62.0615C571.332 44.4289 557.018 30.1348 539.36 30.1348C521.703 30.1348 507.389 44.4289 507.389 62.0615C507.389 79.6941 521.703 93.9882 539.36 93.9882Z" fill="#FDF983"/>
        </g>
        <path d="M856.999 469.211L353.691 448.749L366.171 446.868C366.171 446.868 452.056 318.965 518.875 229.468C558.391 176.528 591.25 137.024 595.706 145.383C607.688 167.868 625.085 275.024 641.577 258.111C658.069 241.198 666.891 245.546 678.59 276.621C679.424 278.857 681.075 281.768 683.401 285.246C713.42 330.093 856.999 469.211 856.999 469.211Z" fill="#BABED9"/>
        <path d="M683.419 285.246C670.087 277.952 654.998 274.509 642.589 284.341C613.05 307.767 602.292 255.644 595.529 228.545C588.765 201.445 551.823 280.135 548.912 246.079C547.651 231.366 534 228.261 518.875 229.468C558.391 176.528 591.25 137.024 595.706 145.383C607.689 167.868 625.086 275.024 641.578 258.111C658.069 241.198 666.892 245.546 678.591 276.621C679.443 278.857 681.076 281.768 683.419 285.246Z" fill="#F2F2F2"/>
        <path d="M578.097 412.705L545.877 431.446C535.705 434.694 523.917 437.267 511.065 439.272C448.968 448.944 362.213 445.413 314.46 442.307C293.069 440.923 279.489 439.609 279.489 439.609L275.335 404.346L270.879 366.457C270.879 366.457 293.158 334.849 319.182 300.119C332.887 281.821 347.639 262.655 360.722 246.807C373.681 231.101 384.972 218.642 392.001 213.496C397.895 225.191 412.878 234.916 420.529 212.254C428.18 189.591 436.968 176.245 446.483 186.059C452.039 191.791 487.259 230.941 521.45 279.301C545.699 313.606 569.434 352.561 581.683 387.487C585.162 397.425 583.582 405.766 578.097 412.705Z" fill="#CCCFE0"/>
        <path d="M521.45 279.266C510.142 282.141 495.869 280.97 481.916 266.754C451.649 235.946 429.832 246.842 420.068 271.901C410.304 296.96 389.428 275.539 375.652 254.971C371.622 248.937 366.279 246.807 360.723 246.789C373.682 231.083 384.972 218.625 392.002 213.478C397.896 225.173 412.878 234.899 420.529 212.236C428.181 189.573 436.968 176.227 446.483 186.041C452.039 191.774 487.26 230.923 521.45 279.266Z" fill="#F2F2F2"/>
        <path d="M169.283 478.794C169.283 478.794 198.663 371.07 227.137 291.493C245.688 239.619 263.866 199.706 273.239 209.449C284.477 221.144 303.489 247.605 322.626 269.984C343.911 294.883 365.391 314.724 376.557 303.561C381.296 298.823 385.326 294.35 388.823 290.393C401.019 276.674 406.842 269.469 413.836 280.951C420.44 291.759 443.695 320.705 463.826 332.063C471.211 336.233 487.028 320.296 490.791 315.576C506.413 295.983 604.351 400.779 678.342 429.387C752.368 458.03 169.283 478.794 169.283 478.794Z" fill="#BABED9"/>
        <path d="M322.608 270.002C313.944 268.688 306.542 270.339 304.465 278.556C298.589 301.733 267.132 331.814 253.534 301.502C248.723 290.783 238.427 289.133 227.137 291.493C245.688 239.619 263.866 199.706 273.239 209.449C284.458 221.162 303.471 247.623 322.608 270.002Z" fill="#F2F2F2"/>
        <path d="M317.904 279.266C316.2 276.391 311.922 276.817 310.821 279.976C307.644 289.204 307.573 300.864 294.578 308.921C286.092 314.192 322.094 317.315 322.058 297.758C322.04 288.672 320.035 282.868 317.904 279.266Z" fill="#F2F2F2"/>
        <path opacity="0.5" d="M761 421.245V558H39V476.165C138.778 341.128 325.207 511.463 431.095 501.826C528.617 492.955 596.314 399.741 760.734 421.198C760.822 421.221 760.911 421.221 761 421.245Z" fill="#F2F2F2"/>
        <path d="M770.067 490.915C769.606 491.448 764.688 491.909 756.593 492.317C709.319 494.749 554.273 495.423 554.273 495.423C548.947 484.331 550.083 474.286 555.444 467.33C563.451 456.859 581.007 453.327 600.588 463.479C602.381 456.078 606.02 449.157 610.902 443.229C611.062 443.034 611.239 442.821 611.399 442.626C619.139 433.486 629.914 426.707 641.649 423.992C659.383 421.756 680.277 432.492 703.905 463.408C703.994 463.319 704.083 463.212 704.171 463.124C706.674 460.675 710.846 459.273 715.888 458.811C730.959 458.58 753.433 471.074 770.067 490.915Z" fill="#F6DFA4"/>
        <path d="M770.103 490.951C767.085 492.389 762.274 492.708 756.594 492.3C735.788 490.862 703.266 480.019 703.266 480.019C671.242 487.224 611.967 481.368 610.902 443.212C611.062 443.017 611.24 442.804 611.399 442.608C620.08 432.28 630.199 425.429 641.649 423.974C659.383 421.738 680.277 432.475 703.905 463.39C703.994 463.301 704.083 463.195 704.172 463.106C707.03 460.249 711.077 458.865 715.888 458.794C730.924 458.563 753.398 471.057 770.05 490.898C770.085 490.916 770.103 490.933 770.103 490.951Z" fill="#F7EDF4"/>
        <path d="M555.463 467.33C555.765 480.622 593.701 490.738 609.376 482.06C615.5 478.652 600.606 463.461 600.606 463.461C581.026 453.309 563.469 456.859 555.463 467.33Z" fill="#F7EDF4"/>
        <path d="M670.62 499.912L304.785 480.231L343.467 436.804C343.467 429.138 389.729 376.713 432.139 335.097C464.678 303.152 494.946 277.561 500.253 283.453C512.467 297.029 522.656 309.239 540.977 282.779C547.953 272.716 566.983 286.506 592.511 309.115C634.086 345.993 692.864 406.351 744.611 425.269C828.099 455.811 670.62 499.912 670.62 499.912Z" fill="#CCCFE0"/>
        <path d="M592.511 309.116C580.866 325.017 557.806 322.408 536.911 319.409C508.402 315.345 469.72 374.371 457.506 343.154C453.796 333.66 444.068 332.275 432.156 335.079C464.696 303.135 494.963 277.544 500.271 283.436C512.485 297.012 522.674 309.222 540.994 282.762C547.953 272.717 567.001 286.488 592.511 309.116Z" fill="#F2F2F2"/>
        <path d="M564.463 502.593L143.152 494.039C149.135 481.048 160.94 464.739 177.414 454.499C196.906 442.378 222.966 438.793 253.659 459.344C253.73 458.19 253.819 457.055 253.943 455.937C256.517 430.878 270.399 412.332 288.524 401.294C328.165 377.14 388.007 388.96 393.492 447.187C436.346 416.556 482.359 443.141 499.046 477.818C521.077 474.074 538.793 482.113 550.208 490.011C559.368 496.346 564.463 502.593 564.463 502.593Z" fill="#91B8B4"/>
        <path d="M258.346 470.879C258.346 470.879 197.811 470.436 177.414 454.517C196.906 442.396 222.966 438.811 253.659 459.362C253.73 458.208 253.819 457.072 253.943 455.954L258.346 470.879Z" fill="#C1D8C9"/>
        <path d="M550.208 490.011C540.87 491.679 523.207 493.045 499.508 486.834C472.436 498.547 421.47 485.929 380.427 480.534C344.408 487.987 270.311 451.872 288.542 401.294C328.182 377.14 388.025 388.96 393.51 447.187C436.364 416.556 482.377 443.141 499.064 477.818C521.077 474.074 538.793 482.113 550.208 490.011Z" fill="#C1D8C9"/>
        <path d="M767.317 493.951C766.802 494.537 761.299 495.051 752.245 495.53C699.344 498.246 525.853 499.009 525.853 499.009C519.888 486.604 521.166 475.352 527.167 467.561C536.114 455.848 555.765 451.891 577.689 463.249C579.695 454.961 583.76 447.223 589.228 440.586C589.423 440.355 589.601 440.124 589.796 439.911C598.459 429.689 610.53 422.093 623.631 419.059C643.478 416.556 666.876 428.571 693.308 463.16C693.415 463.053 693.521 462.947 693.61 462.84C696.415 460.09 701.084 458.546 706.729 458.013C723.54 457.783 748.695 471.767 767.317 493.951Z" fill="#69A0B4"/>
        <path d="M767.353 494.004C763.98 495.619 758.601 495.956 752.246 495.53C728.973 493.933 692.564 481.794 692.564 481.794C656.722 489.851 590.4 483.303 589.211 440.603C589.406 440.373 589.584 440.142 589.779 439.929C599.489 428.376 610.815 420.691 623.614 419.076C643.461 416.574 666.859 428.589 693.291 463.178C693.398 463.071 693.504 462.965 693.593 462.858C696.789 459.646 701.315 458.12 706.712 458.031C723.541 457.765 748.696 471.749 767.318 493.951C767.318 493.986 767.335 493.986 767.353 494.004Z" fill="#A1D1D9"/>
        <path d="M527.148 467.579C527.486 482.451 569.949 493.773 587.47 484.066C594.322 480.25 577.671 463.266 577.671 463.266C555.747 451.891 536.095 455.866 527.148 467.579Z" fill="#F7EDF4"/>
        <path d="M686.365 448.944H508.472C508.472 448.944 508.099 430.646 515.768 417.088C521.129 407.575 530.431 400.388 546.532 403.405C555.781 359.783 634.778 344.343 643.316 423.069C643.334 423.069 675.696 416.893 686.365 448.944Z" fill="#69A0B4"/>
        <path d="M686.365 448.944C672.465 427.7 643.529 428.215 643.529 428.215C613.848 350.892 551.84 400.193 553.828 417.886C553.828 417.886 531.904 410.113 515.768 417.088C521.129 407.575 530.431 400.388 546.532 403.405C555.781 359.783 634.778 344.343 643.316 423.069C643.334 423.069 675.696 416.893 686.365 448.944Z" fill="#B5DAE1"/>
        <path d="M659.684 363.652C654.784 364.894 656.488 372.916 659.684 372.916C662.879 372.916 665.737 362.108 659.684 363.652Z" fill="#B5DAE1"/>
        <path d="M683.17 395.543C679.602 411.125 665.685 398.773 659.685 405.712C653.933 412.403 648.749 406.759 648.678 398.933C648.643 394.159 650.542 388.533 655.406 384.434C662.986 378.063 672.058 379.82 677.756 384.274C681.697 387.344 684.04 391.692 683.17 395.543Z" fill="#A1D1D9"/>
        <path d="M677.774 384.273C676.052 392.029 657.448 405.96 648.678 398.932C648.643 394.158 650.542 388.533 655.406 384.433C662.986 378.08 672.058 379.837 677.774 384.273Z" fill="#B5DAE1"/>
        <path d="M473.038 444.791H306.275C309.737 439.024 321.329 430.895 328.679 434.764C329.584 431.428 331.945 428.446 335.016 426.21C341.194 421.72 350.141 420.336 355.307 425.5C369.579 362.978 430.203 384.203 432.901 413.149C454.701 411.143 464.713 421.951 469.275 431.481C472.63 438.473 473.038 444.791 473.038 444.791Z" fill="#69A0B4"/>
        <path d="M469.275 431.481C455.464 418.526 439.203 421.738 433.451 429.831C387.58 373.395 353.62 434.658 353.62 434.658C353.62 434.658 343.998 428.021 335.016 426.21C341.193 421.72 350.14 420.336 355.306 425.5C369.579 362.978 430.202 384.203 432.901 413.149C454.7 411.143 464.712 421.951 469.275 431.481Z" fill="#A1D1D9"/>
        <path d="M357.703 376.093C364.183 374.549 367.059 384.931 357.703 384.931C353.372 384.931 351.242 377.637 357.703 376.093Z" fill="#B5DAE1"/>
        <path d="M349.519 406.192C325.731 404.506 327.524 382.713 337.128 379.145C338.424 378.648 339.862 378.507 341.406 378.773C349.892 380.317 342.169 389.918 351.436 392.42C355.004 393.379 356.992 395.615 357.543 397.993C358.448 401.844 355.608 406.103 349.519 406.192Z" fill="#A1D1D9"/>
        <path d="M357.542 398.01C338.636 403.015 331.695 392.03 337.127 379.145C338.423 378.648 339.861 378.507 341.405 378.773C349.891 380.317 342.169 389.918 351.435 392.42C355.003 393.396 356.992 395.615 357.542 398.01Z" fill="#B5DAE1"/>
        <path d="M606.942 460.337L533.981 461.366L410.533 463.106L382.627 463.496C382.627 463.496 411.492 412.545 435.457 370.981V370.964C446.854 351.211 457.15 333.589 462.689 324.555C464.695 321.29 466.08 319.143 466.683 318.433C466.719 318.379 466.772 318.326 466.807 318.308C467.5 317.599 468.281 316.818 469.133 316.019C482.891 303.011 515.821 280.756 533.981 310.216C534.656 311.192 537.887 317.563 542.609 327.2C562.047 366.598 606.942 460.337 606.942 460.337Z" fill="#6F4849"/>
        <path d="M564.195 371.478C522.815 335.842 501.619 352.826 479.376 365.196C469.754 370.555 459.973 375.081 448.256 374.087C444.244 373.768 439.984 372.809 435.457 370.999V370.981C436.895 368.461 438.351 365.977 439.753 363.545C440.41 362.392 441.067 361.256 441.724 360.138C443.374 357.263 444.99 354.494 446.552 351.797C447.422 350.306 448.256 348.851 449.091 347.413C452.286 341.965 455.18 337.031 457.683 332.843C458.41 331.636 459.085 330.483 459.742 329.4C460.842 327.59 461.819 325.957 462.689 324.555C464.695 321.29 466.079 319.143 466.683 318.433C466.718 318.379 466.772 318.326 466.807 318.308C467.162 317.953 467.517 317.581 467.926 317.19C468.174 316.942 468.423 316.693 468.689 316.445C468.831 316.303 468.991 316.161 469.133 316.019C471.991 313.322 474.654 309.861 478.879 306.915C490.098 299.017 505.862 292.132 518.767 296.728C524.288 298.698 530.466 303.153 534.78 310.163C535.454 311.156 560.503 360.741 564.195 371.478Z" fill="#EEE2D8"/>
        <path d="M533.981 461.366L410.533 463.105L382.627 463.496C382.627 463.496 411.492 412.544 435.457 370.981C439.984 372.791 444.245 373.75 448.256 374.069C459.955 375.045 469.754 370.537 479.376 365.178C490.24 400.015 509.022 437.053 533.981 461.366Z" fill="#522B35"/>
        <path d="M479.376 365.196C469.754 370.556 459.973 375.081 448.256 374.087C444.244 373.768 439.984 372.81 435.457 370.999V370.982C436.895 368.462 438.351 365.977 439.753 363.546C440.41 362.392 441.067 361.256 441.724 360.138C443.374 357.263 444.99 354.495 446.552 351.797C447.422 350.307 448.274 348.851 449.091 347.414C452.286 341.966 455.18 337.032 457.683 332.844C458.41 331.637 459.085 330.483 459.742 329.401C460.842 327.591 461.819 325.958 462.689 324.556C464.695 321.29 466.079 319.143 466.683 318.433C466.718 318.38 466.772 318.327 466.807 318.309C467.162 317.954 467.517 317.581 467.925 317.191C468.174 316.942 468.423 316.694 468.689 316.445C468.831 316.303 468.991 316.162 469.133 316.02C470.375 330.572 473.837 347.609 479.376 365.196Z" fill="#D8C4B4"/>
        <path d="M510.334 298.131C518.837 300.403 480.67 308.868 484.238 304.893C491.73 299.622 501.724 295.061 510.334 298.131Z" fill="#C6ABA0"/>
        <path d="M467.926 162.349L498.3 299.355C499.063 302.301 503.998 301.325 503.27 297.829L472.08 162.349C472.08 162.349 469.665 159.58 467.926 162.349Z" fill="#794E48"/>
        <path d="M428.728 195.464L469.132 167.814L479.233 213.371L429.438 199.67C427.503 199.138 427.077 196.6 428.728 195.464Z" fill="#BD4837"/>
        <path d="M424.416 374.673C423.511 380.76 422.552 385.001 422.357 386.102C422.197 387.096 417.067 392.579 410.942 399.625C401.427 410.592 389.515 425.305 390.172 432.634C390.776 439.396 392.977 442.998 392.977 442.998C395.516 444.187 393.19 446.033 391.202 445.11C382.841 437.213 378.349 433.681 379.414 431.108C379.414 431.108 386.302 420.335 390.9 406.706C392.569 401.79 396.013 395.65 399.137 390.698C402.297 385.622 405.084 381.771 405.084 381.771C405.084 381.771 404.551 363.332 403.682 350.572C403.469 347.289 403.22 344.396 402.971 342.284C401.711 331.867 424.043 324.68 425.694 344.485C426.653 355.683 425.588 366.74 424.416 374.673Z" fill="#53604F"/>
        <path d="M391.237 445.11C382.876 437.213 378.384 433.681 379.45 431.108C379.45 431.108 386.337 420.336 390.935 406.706C392.604 401.79 396.048 395.65 399.172 390.698C404.888 392.544 408.918 396.945 410.96 399.625C401.444 410.593 389.533 425.305 390.19 432.634C390.793 439.396 392.994 442.999 392.994 442.999C395.533 444.188 393.225 446.016 391.237 445.11Z" fill="#2B1721"/>
        <path d="M424.416 374.673C420.102 362.374 416.711 353.075 403.717 350.555C403.504 347.272 403.255 344.379 403.006 342.267C401.746 331.849 424.078 324.662 425.729 344.468C426.652 355.684 425.587 366.74 424.416 374.673Z" fill="#3F473A"/>
        <path d="M464.093 288.937C462.406 289.097 461.217 288.742 461.323 290.463C461.164 292.593 456.14 295.06 452.039 291.865C452.785 291.28 453.299 290.233 453.619 289.026C454.365 286.346 454.223 282.903 453.779 281.874C452.447 278.626 456.424 276.55 459.211 277.189C461.998 277.845 462.903 279.939 464.093 282.264C465.282 284.589 465.779 288.777 464.093 288.937Z" fill="#E19A65"/>
        <path d="M458.004 278.981C458.98 280.419 457.968 281.04 457.88 282.619C454.116 280.348 453.495 286.701 457.667 285.725C457.187 287.553 456.104 289.931 453.601 289.026C454.347 286.346 454.205 282.903 453.761 281.874C452.43 278.626 456.406 276.55 459.193 277.189C459.211 277.171 458.11 277.331 458.004 278.981Z" fill="#9F6F5A"/>
        <path d="M446.589 276.124C446.216 278.875 448.346 283.099 452.163 282.3C455.962 281.502 455.997 275.947 462.14 278.946C461.944 274.935 456.37 273.232 453.512 276.533C450.654 279.833 446.784 274.74 446.589 276.124Z" fill="#5B3E4F"/>
        <path d="M464.962 284.803C463.009 282.762 460.613 285.726 460.613 285.726C460.613 285.726 458.251 283.561 457.896 282.62C458.18 284.448 457.683 285.726 457.683 285.726C457.683 285.726 456.689 288.654 458.607 289.222C459.583 289.506 463.258 289.275 464.429 289.275C466.471 289.275 466.4 286.311 464.962 284.803Z" fill="#5B3E4F"/>
        <path d="M465.298 294.333C474.814 300.704 469.328 326.313 446.978 325.851C424.628 325.39 401.569 334.867 401.569 334.867C393.687 330.306 412.362 311.583 419.108 307.359C426.67 302.638 439.558 295.362 447.298 293.392C453.493 291.812 462.671 292.558 465.298 294.333Z" fill="#BA582E"/>
        <path d="M454.381 293.232C450.759 286.542 447.706 282.708 445.256 282.531C442.806 282.353 438.723 284.643 439.717 292.274C440.694 299.887 454.381 293.232 454.381 293.232Z" fill="#BB592E"/>
        <path d="M409.113 316.694C414.439 322.107 432.244 322.213 445.594 321.184C445.594 321.184 423.919 315.523 415.682 312.541C415.291 312.08 409.113 316.694 409.113 316.694Z" fill="#2B1721"/>
        <path d="M442.169 295.61L427.417 304.945L425.074 306.418L410.144 316.321C409.381 316.818 408.369 316.605 407.872 315.842C406.452 313.677 403.789 309.489 402.759 307.323C402.422 306.614 403.256 305.158 404.943 303.348C407.517 300.562 412.061 296.959 417.245 294.084C418.044 293.641 418.86 293.215 419.677 292.806C424.541 290.428 429.778 288.867 434.358 289.257C440.003 289.736 441.814 291.564 442.293 293.126C442.719 294.475 442.169 295.61 442.169 295.61Z" fill="#C07731"/>
        <path d="M442.169 295.611L427.417 304.945L425.074 306.418L410.144 316.321C409.381 316.818 408.369 316.605 407.872 315.842C406.452 313.677 403.789 309.489 402.759 307.324C402.422 306.614 403.256 305.158 404.943 303.348C413.961 303.384 432.334 296.906 442.293 293.126C442.719 294.475 442.169 295.611 442.169 295.611Z" fill="#E09634"/>
        <path d="M427.416 304.945L425.073 306.418C423.511 303.153 420.333 296.995 417.244 294.102C418.043 293.658 418.86 293.232 419.676 292.824C422.996 295.948 425.943 301.751 427.416 304.945Z" fill="#EEE2D8"/>
        <path d="M419.625 296.889C419.625 296.889 413.625 298.113 414.619 300.048C415.631 301.982 420.424 298.06 420.424 298.06L419.625 296.889Z" fill="#EEE2D8"/>
        <path d="M499.206 253.231C499.65 249.397 502.668 241.447 504.798 240.772C506.928 240.098 507.496 241.801 507.035 242.494C506.396 243.452 507.088 243.86 507.621 244.357C508.171 244.854 510.621 248.137 509.751 249.308C508.881 250.497 504.567 256.177 503.928 257.543C503.928 257.561 498.656 257.916 499.206 253.231Z" fill="#BA7E5F"/>
        <path d="M507.568 259.815C507.16 268.192 498.94 282.992 489.532 296.267C464.075 321.361 446.714 321.202 446.714 321.202C446.714 321.202 442.169 318.025 440.731 312.736C439.844 309.471 440.128 305.425 443.376 300.828C452.323 288.192 465.318 294.333 474.425 283.809C483.532 273.303 488.325 253.036 501.674 253.107C506.041 253.107 507.763 255.68 507.568 259.815Z" fill="#C35D2F"/>
        <path d="M507.567 259.814C507.159 268.191 498.94 282.992 489.531 296.267C464.074 321.361 446.713 321.201 446.713 321.201C446.713 321.201 442.168 318.024 440.73 312.736C486.194 302.602 497.164 278.768 507.567 259.814Z" fill="#D46931"/>
        <path d="M460.806 326.418C459.759 328.584 458.587 330.713 457.291 332.772C457.291 332.772 457.291 332.79 457.274 332.79C449.161 345.78 433.344 356.198 429.492 363.243C429.332 363.492 429.225 363.722 429.119 363.971C428.196 366.065 428.799 370.058 431.267 370.449C432.829 370.697 434.409 370.697 434.8 371.07L434.107 372.294C432.527 375.045 422.018 368.266 421.361 366.757C421.166 366.278 421.077 365.959 421.166 365.621C421.361 364.823 422.426 363.776 425 360.209C427.912 356.162 431.888 346.934 435.829 339.072C436.948 336.836 438.385 334.742 440.303 332.985L440.391 332.896C440.232 332.932 440.072 332.985 439.894 333.056C439.877 333.074 439.859 333.074 439.859 333.074C434.835 335.345 422.196 353.695 408.42 351.903C400.502 350.874 396.846 347.076 398.834 335.824C399.047 334.618 399.313 333.34 399.668 331.938C399.668 331.938 414.811 321.467 423.243 320.81C430.237 320.278 443.338 317.314 452.321 317.421C459.528 317.51 464.09 319.568 460.806 326.418Z" fill="#7D8E4C"/>
        <path d="M460.806 326.419C459.759 328.584 458.587 330.713 457.291 332.772C457.291 332.772 457.291 332.79 457.273 332.79C449.161 345.781 433.344 356.198 429.491 363.244C426.74 364.042 423.953 364.823 421.183 365.622C421.379 364.823 422.444 363.776 425.018 360.209C427.929 356.162 431.906 346.934 435.847 339.072C436.965 336.836 438.403 334.742 440.32 332.985L440.409 332.896C440.249 332.932 440.089 332.985 439.912 333.056C439.894 333.074 439.876 333.074 439.876 333.074C434.853 335.345 422.213 353.696 408.437 351.903C400.52 350.874 396.863 347.076 398.851 335.824C412.911 333.943 437.427 321.13 452.338 317.421C459.528 317.51 464.09 319.568 460.806 326.419Z" fill="#67764B"/>
        <path d="M457.274 332.808C448.877 346.242 432.243 356.944 429.119 363.971C428.196 366.066 428.799 370.059 431.267 370.449C432.829 370.697 434.409 370.697 434.8 371.07L434.107 372.295C432.527 375.045 422.018 368.266 421.361 366.758C420.722 365.249 421.237 365.409 425 360.191C427.912 356.145 431.888 346.917 435.829 339.055C436.948 336.819 438.386 334.724 440.303 332.968C441.971 332.613 447.989 331.53 457.274 332.808Z" fill="#49343D"/>
        <path d="M513.229 253.266C512.803 253.426 511.046 253.213 510.637 253.337C509.626 253.639 508.134 255.786 505.614 253.799C503.093 251.811 500.235 248.776 499.826 250.125C497.749 249.681 501.14 243.576 502.72 243.523C504.193 243.47 506.128 247.072 510.424 247.552C510.3 249.522 511.028 251.704 513.229 253.266Z" fill="#E19A65"/>
        <path d="M553.491 214.525C551.165 216.938 548.396 219.228 545.236 221.251C539.964 224.641 533.644 226.469 527.164 227.338C510.14 229.645 492.051 225.422 489.122 224.641C483.476 223.132 485.323 212.484 489.122 213.62C490.293 213.957 492.317 213.779 494.873 213.265C500.465 212.165 508.649 209.556 516.549 207.675C534.478 203.415 537.958 196.512 541.526 192.43C543.052 190.691 544.597 189.448 547.313 189.164C565.651 187.301 565.278 202.333 553.491 214.525Z" fill="#5B738A"/>
        <path d="M553.491 214.525C551.165 216.938 548.396 219.228 545.236 221.251C539.964 224.64 533.644 226.468 527.164 227.338C510.14 229.645 492.051 225.421 489.122 224.64C483.476 223.132 485.323 212.484 489.122 213.62C490.293 213.957 492.317 213.779 494.873 213.265C506.678 217.417 534.532 216.086 553.491 214.525Z" fill="#5B8096"/>
        <path d="M564.48 245.333C557.982 251.154 555.035 253 551.467 254.845C550.881 255.147 550.296 255.431 549.728 255.733C535.632 262.991 531.727 265.245 529.543 268.102C529.49 268.191 529.419 268.262 529.348 268.351C527.076 271.634 523.703 282.442 522.744 289.186C521.75 296.089 521.2 296.994 521.2 296.994L508.17 294.865C508.454 291.848 511.436 296.941 516.389 291.28C517.365 289.452 504.069 270.055 513.531 255.076C513.584 254.987 513.638 254.916 513.691 254.845C520.099 244.978 528.514 238.607 535.526 233.886C539.183 231.402 542.485 229.379 544.952 227.515C556.136 219.032 577.083 230.479 564.48 245.333Z" fill="#B6843C"/>
        <path d="M529.366 268.351C527.093 271.634 523.721 282.442 522.762 289.186C521.768 296.089 521.218 296.994 521.218 296.994L508.188 294.865C508.472 291.848 511.454 296.941 516.407 291.28C517.383 289.452 504.087 270.054 513.549 255.076C519.638 254.934 527.022 263.24 529.366 268.351Z" fill="#2B1721"/>
        <path d="M564.479 245.333C557.982 251.154 555.035 253 551.467 254.845C550.881 255.147 550.295 255.431 549.727 255.733C548.484 247.374 541.099 238.767 535.543 233.904C539.2 231.419 542.502 229.396 544.969 227.533C556.135 219.032 577.083 230.479 564.479 245.333Z" fill="#996630"/>
        <path d="M581.13 249.61C580.775 251.332 580.26 253.089 579.639 254.846C573.071 273.214 554.484 274.882 553.65 288.511C553.597 289.204 553.615 289.949 553.668 290.712C554.023 295.593 553.916 300.437 553.473 305.087C552.461 315.38 549.674 324.733 546.034 331.53L536.573 312.505C539.519 311.902 539.999 313.765 542.129 316.09C543.638 311.707 542.928 305.336 541.525 298.592C540.62 294.262 539.413 289.789 538.312 285.601C536.963 280.419 535.774 275.698 535.49 272.202C535.454 271.723 535.436 271.261 535.454 270.853C535.632 261.412 546.194 260.738 551.751 248.173C557.556 235.022 564.053 229.929 573.39 232.342C581.095 234.312 582.817 241.447 581.13 249.61Z" fill="#B78937"/>
        <path d="M581.131 249.61C580.776 251.332 580.261 253.089 579.639 254.846C573.071 273.214 554.485 274.882 553.65 288.512C553.597 289.204 553.615 289.949 553.668 290.712C554.023 295.593 553.917 300.438 553.473 305.087L541.508 298.61C540.603 294.279 539.395 289.807 538.295 285.619C536.946 280.437 535.756 275.716 535.472 272.22C535.437 271.741 535.419 271.279 535.437 270.871C545.378 272.859 570.444 264.358 581.131 249.61Z" fill="#E2B252"/>
        <path d="M553.49 305.087C552.478 315.38 549.691 324.733 546.052 331.53L536.59 312.505C539.537 311.902 540.016 313.765 542.146 316.09C543.655 311.707 542.945 305.336 541.543 298.592C540.637 294.261 539.43 289.789 538.33 285.601C542.927 284.11 549.886 285.104 553.667 288.494C553.614 289.186 553.632 289.931 553.685 290.694C554.022 295.593 553.934 300.437 553.49 305.087Z" fill="#49343D"/>
        <path d="M593.521 210.265C589.829 216.796 582.888 220.168 582.302 220.044C581.166 219.76 580.935 199.209 566.13 190.637C558.869 186.821 555.549 187.425 554.253 184.319C553.667 182.953 554.75 181.977 557.608 179.953C557.91 179.74 558.23 179.492 558.567 179.261C559.082 178.889 559.65 178.534 560.289 178.196C562.135 177.167 564.532 176.209 567.621 175.499C572.414 174.381 579.337 176.617 586.118 182.278C588.959 185.224 591.071 188.028 592.58 190.655C593.131 191.595 593.574 192.483 593.947 193.37C597.036 200.291 595.989 205.97 593.521 210.265Z" fill="#97A847"/>
        <path d="M593.521 210.265C589.829 216.796 582.887 220.168 582.302 220.043C581.166 219.759 580.935 199.209 566.129 190.637C558.869 186.821 555.549 187.425 554.253 184.319C553.667 182.952 554.75 181.976 557.608 179.953C555.034 185.543 565.313 180.557 586.953 206.964C590.361 211.134 591.781 212.004 593.521 210.265Z" fill="#BEBA41"/>
        <path d="M593.964 193.37C592.313 194.328 589.775 195.446 586.118 196.263C579.532 197.754 562.632 182.935 558.566 179.244C559.081 178.871 559.649 178.516 560.288 178.179C561.922 179.687 566.981 183.716 573.247 188.348C584.129 196.369 587.946 193.086 592.579 190.655C593.13 191.595 593.591 192.5 593.964 193.37Z" fill="#EEE2D8"/>
        <path d="M588 195.801L589.42 201.249C589.971 203.326 592.758 202.172 592.083 200.451C591.391 198.694 589.367 195.375 589.367 195.375L588 195.801Z" fill="#EEE2D8"/>
        <path d="M577.953 258.715C583.652 242.991 546.603 236.016 532.117 236.3C532.703 236.3 533.271 235.058 533.875 232.964C537.354 221.056 542.094 181.586 556.455 186.236C578.805 193.459 585.587 212.857 585.959 229.769C586.332 245.227 581.326 258.59 577.953 258.715Z" fill="#5D8CA0"/>
        <path d="M577.953 258.715C583.652 242.991 546.603 236.016 532.117 236.3C532.703 236.3 533.271 235.058 533.875 232.964C552.088 235.466 578.166 239.601 585.977 229.77C586.332 245.227 581.326 258.591 577.953 258.715Z" fill="#69A0B4"/>
        <path d="M583.156 212.626L584.824 218.908C584.824 218.908 554.894 235.236 536.592 221.233C536.698 221.233 538.083 214.596 538.083 214.596C538.296 219.547 564.267 226.114 583.156 212.626Z" fill="#49343D"/>
        <path d="M549.14 190.779C548.412 191.294 547.649 191.542 547.063 191.276C546.193 191.045 545.288 190.903 544.329 190.797C539.163 190.3 533.341 191.4 534.122 187.585C534.122 187.159 534.21 186.75 534.317 186.236C534.37 185.952 534.441 185.65 534.512 185.277C534.548 185.082 534.583 184.869 534.619 184.639V184.621C534.707 183.929 534.796 183.095 534.796 182.012C534.796 181.497 534.778 180.947 534.743 180.326C534.672 179.829 534.725 179.368 534.867 178.906C535.666 176.315 539.341 174.47 541.95 175.428C543.903 176.138 545.163 176.688 545.004 179.244C544.968 179.9 544.826 180.681 544.595 181.657C544.524 181.941 544.578 182.225 544.72 182.491C544.933 182.97 545.412 183.432 546.033 183.84C547.436 184.834 549.513 185.668 550.56 186.023C552.442 186.715 550.897 189.519 549.14 190.779Z" fill="#E19A65"/>
        <path d="M540.886 176.475C538.951 180.238 527.359 180.007 531.158 173.458C532.081 172.145 536.785 176.262 539.182 174.328C542.182 171.896 544.987 173.015 545.395 174.718C545.785 176.422 546.194 181.373 544.49 182.687C540.815 180.202 540.886 176.475 540.886 176.475Z" fill="#704640"/>
        <path d="M546.815 179.528C547.862 180.717 546.726 184.302 545.11 184.124C543.495 183.947 544.613 179.528 544.613 179.528C544.613 179.528 545.714 178.268 546.815 179.528Z" fill="#D77457"/>
        <path d="M531.389 181.924H542.04C542.04 181.924 540.797 186.911 535.88 183.255C533.235 186.112 531.797 183.982 531.389 181.924Z" fill="#522B35"/>
        <path d="M542.981 190.708C537.815 190.211 533.341 191.418 534.122 187.602C534.122 187.177 534.211 186.768 534.318 186.254C534.371 185.97 536.537 183.556 538.88 186.609C540.46 188.667 543.726 184.994 543.123 181.551L544.276 181.64C543.868 184.142 546.105 188.17 542.981 190.708Z" fill="#AE9162"/>
        <path d="M553.047 178.622C546.496 186.058 543.088 193.973 543.088 193.973C543.088 193.973 551.964 184.798 565.651 190.389C567.604 187.194 556.97 174.594 553.047 178.622Z" fill="#475E74"/>
        <path d="M542.59 194.151C550.347 188.916 557.413 186.165 566.111 190.619C554.732 174.86 542.59 194.151 542.59 194.151Z" fill="#2B1721"/>
        <path d="M566.094 212.625C558.833 235.235 527.27 259.105 517.258 256.94C515.11 256.567 513.494 255.892 512.305 255.023C510.086 253.443 509.358 251.261 509.447 249.273C509.482 248.474 509.553 246.824 510.21 244.978C511.328 241.73 514.257 237.844 521.855 236.673C530.27 235.359 539.891 207.94 541.01 200.114C542.838 187.23 559.508 182.296 565.721 195.021C568.259 200.416 568.082 206.467 566.094 212.625Z" fill="#5D8CA0"/>
        <path d="M566.093 212.625C558.833 235.235 527.27 259.104 517.257 256.939C515.109 256.566 513.494 255.892 512.305 255.022C510.086 253.443 509.358 251.26 509.447 249.272C509.482 248.474 509.553 246.823 510.21 244.978C523.506 249.663 551.714 243.789 566.093 212.625Z" fill="#69A0B4"/>
        <path d="M479.944 216.211C477.778 217.684 478.186 220.488 479.038 222.671C479.891 224.854 483.778 224.694 483.92 224.534C485.021 223.239 485.181 219.849 480.512 217.986C480.104 217.542 479.944 216.211 479.944 216.211Z" fill="#CC8868"/>
        <path d="M489.034 217.808C485.98 213.868 485.128 213.141 483.069 213.443C481.72 213.655 481.169 217.684 481.169 217.684C480.992 218.216 483.406 218.305 483.921 215.537C483.921 215.537 484.72 223.257 487.614 221.784C489.939 220.612 489.034 217.808 489.034 217.808Z" fill="#E19A65"/>
        <path d="M662.31 498.99H342.293C342.577 498.635 342.861 498.316 343.127 497.978C359.743 477.995 371.992 479.504 371.992 479.504C381.365 458.279 393.064 448.198 404.514 444.596C427.627 437.284 449.604 456.38 448.841 463.301C451.326 455.652 458.214 449.423 465.617 445.998C474.262 441.969 483.653 441.756 487.612 447.453C488.091 445.82 488.641 444.241 489.227 442.697V442.679C490.381 439.591 491.712 436.681 493.186 433.948C500.5 420.389 511.524 411.072 523.932 405.73C543.318 397.336 566.094 398.56 583.455 408.215C601.953 418.526 614.291 438.367 609.782 466.3L609.764 466.318V466.371C612.249 464.863 614.61 463.603 616.865 462.591C624.64 459.077 631.12 458.314 636.499 459.361C645.73 461.154 651.748 468.27 655.618 475.99C661.085 486.887 662.31 498.972 662.31 498.99Z" fill="#C1D8C9"/>
        <path d="M662.31 498.99H342.293C342.577 498.635 342.861 498.315 343.127 497.978C359.743 477.995 371.992 479.504 371.992 479.504C381.365 458.278 393.064 448.198 404.514 444.595C404.053 468.412 429.065 471.926 448.841 463.301C451.326 455.652 458.214 449.422 465.617 445.997C460.327 456.095 483.724 464.578 487.612 447.453C487.86 446.37 488.428 444.737 489.227 442.696V442.679C490.221 440.247 491.588 437.248 493.186 433.947C500.5 420.388 511.524 411.071 523.932 405.729C511.755 460.408 576.248 493.63 609.001 468.66C607.367 494.535 645.25 494.446 655.618 475.972C661.085 486.886 662.31 498.972 662.31 498.99Z" fill="#91B8B4"/>
        <path d="M479.34 470.826C475.86 462.343 507.477 439.041 536.324 468.874C565.189 498.724 484.807 484.1 479.34 470.826Z" fill="#C1D8C9"/>
        <path d="M599.292 104.795C599.292 104.795 599.256 104.795 599.168 104.778C598.511 104.618 597.854 104.511 597.233 104.44C597.197 104.44 597.144 104.44 597.108 104.423C594.712 104.157 592.617 104.44 590.806 105.008C585.073 106.801 582.214 111.486 581.7 111.291C581.22 111.113 581.575 105.488 580.049 99.844C579.25 96.969 577.989 94.0763 575.877 91.9111C575.912 91.9289 575.966 91.9644 576.001 91.9999C583.546 97.0222 584.966 102.666 584.966 102.666C584.966 102.666 592.972 100.944 599.292 104.795Z" fill="#C18360"/>
        <path d="M580.103 100.128C574.386 95.5313 565.12 90.1007 565.67 85.3623C568.031 88.7697 575.842 91.8932 575.842 91.8932C575.842 91.8932 575.86 91.9109 575.877 91.9287C577.99 94.1116 579.25 96.9866 580.049 99.8616C580.067 99.9148 580.085 100.021 580.103 100.128Z" fill="#D3AE85"/>
        <path d="M613.529 106.499C611.825 109.516 598.919 110.936 590.807 105.026C592.617 104.458 594.73 104.174 597.109 104.441C597.144 104.458 597.197 104.458 597.233 104.458C598.156 104.6 598.902 104.742 599.168 104.796C599.257 104.813 599.292 104.813 599.292 104.813C605.008 107.511 613.529 107.262 613.529 106.499Z" fill="#D3AE85"/>
        <path d="M508.457 139.082C503.682 136.864 514.28 136.012 514.28 136.012C514.28 136.012 519.445 133.918 518.966 137.698C518.114 144.389 518.203 143.626 508.457 139.082Z" fill="#C18360"/>
        <path d="M529.848 125.488C527.984 124.973 519.854 129.534 519.854 129.534C519.854 129.534 523.422 134.414 527.398 132.267C529.031 131.38 529.848 125.488 529.848 125.488Z" fill="#C18360"/>
        <path d="M480.266 121.815C493.473 121.921 506.237 117.271 511.119 122.187C516.001 127.103 525.906 133.9 541.812 129.801C547.866 127.724 556.085 140.839 565.476 142.099C556.795 145.365 539.611 134.628 536.469 135.018C530.54 138.23 513.515 141.904 508.545 129.322C506.503 125.737 492.852 130.138 480.266 121.815Z" fill="#D3AE85"/>
    </g>
    <defs>
        <clipPath id="clip0">
            <rect width="857" height="532" fill="white"/>
        </clipPath>
    </defs>
</svg>
