<svg width="1440" height="201" viewBox="0 0 1440 201" fill="none" xmlns="http://www.w3.org/2000/svg">
    <g clip-path="url(#clip0)">
        <path d="M1400.6 38.3258L1369.38 11.9627L1317.33 24.1914L1273.13 57.2247L1214.2 28.1617L1193.86 39.2787L1181.21 31.4968L1159.43 40.3904L1116.03 8.62759L1088.33 25.6207L1075.2 19.2681L1055.18 24.8266L1015.78 6.88064L993.843 24.1914L981.192 20.221L940.036 51.6662L872.936 39.914L823.612 64.0537L807.117 58.9717L758.114 98.6752L664.911 57.3835L628.719 68.9769L574.751 30.3851L549.929 38.8023L516.139 12.4391L432.384 38.167L383.06 16.4095L327.331 39.2787L282.331 16.8859L257.989 31.9733L242.295 25.3031L174.715 55.0013L132.438 36.5789L114.342 46.1077L49.3238 0.210449L0 41.0257V158.389L467.456 196.981H1006.65C1006.65 196.981 1023.31 198.252 1050.05 199.999H1438.56C1439.52 199.046 1440 198.093 1440 196.981V38.167L1420.62 25.9383L1400.6 38.3258Z" fill="url(#paint0_radial)"/>
        <path d="M1440 72.3121L1411.98 86.4465L1352.4 54.8425L1324.38 71.0416L1285.14 40.0728L1247.03 70.5651L1224.77 55.319L1210.2 70.7239L1142.62 48.6488L1127.72 60.0834L1073.91 23.5562L995.605 93.5931L981.032 67.0712L911.05 120.115L843.95 95.9754L831.619 103.44L799.11 78.5058L774.448 108.204L760.996 98.9928L692.776 144.096L628.719 114.557L606.459 137.585L588.843 129.644L571.548 143.937L546.886 125.038L527.829 140.443L500.285 132.979L482.189 154.419L478.665 155.848L473.701 153.943L428.701 125.515L410.605 131.391L378.897 120.115L311.797 140.284L259.911 109.792L235.569 118.686L201.139 90.8933L168.149 109.316L148.772 95.4989L135.961 105.187L77.0285 70.2475L64.0569 87.717L18.0961 45.3137L0 58.9717V200.157H1440V72.3121Z" fill="white"/>
    </g>
    <defs>
        <radialGradient id="paint0_radial" cx="0" cy="0" r="1" gradientUnits="userSpaceOnUse" gradientTransform="translate(727.014 -56.812) scale(1238.8 320.767)">
            <stop offset="0.2038" stop-color="white" stop-opacity="0"/>
            <stop offset="0.9369" stop-color="white" stop-opacity="0.9208"/>
            <stop offset="1" stop-color="white"/>
        </radialGradient>
        <clipPath id="clip0">
            <rect width="1440" height="199.947" fill="white" transform="translate(0 0.210449)"/>
        </clipPath>
    </defs>
</svg>
