<svg width="379" height="297" viewBox="0 0 379 297" fill="none" xmlns="http://www.w3.org/2000/svg">
    <path d="M277.744 35.9934C277.744 35.9934 204.752 35.9934 203.626 35.9934C202.769 33.2895 202.511 31.1114 202.683 29.3518C203.54 20.7574 214.612 22.2703 214.612 22.2703C215.116 -2.36477 241.14 0.167416 254.667 17.839C256.339 20.0171 257.818 22.4419 259.029 25.06C259.072 25.1136 259.104 25.1887 259.126 25.2424C261.752 22.0235 265.793 21.5729 269.437 23.193C273.628 25.06 277.283 29.6629 277.744 35.9934Z" fill="#E8C8AA"/>
    <path d="M254.677 17.8385C253.037 28.4179 231.729 30.9608 218.899 26.7655C215.931 30.4458 208.245 32.0552 202.693 29.3621C203.551 20.7677 214.623 22.2806 214.623 22.2806C215.116 -2.36526 241.151 0.177646 254.677 17.8385Z" fill="#F7EBC0"/>
    <path d="M269.448 23.1929C269.738 29.373 263.092 30.2636 258.098 28.1391C258.098 28.1391 258.526 26.9267 259.041 25.0598C259.084 25.1134 259.116 25.1885 259.137 25.2422C261.763 22.0233 265.815 21.5727 269.448 23.1929Z" fill="#F7EBC0"/>
    <path d="M99.3274 68.8148C99.3274 68.8148 26.3356 68.8148 25.2102 68.8148C24.3527 66.1109 24.0955 63.9328 24.2669 62.1731C25.1244 53.5788 36.1964 55.0916 36.1964 55.0916C36.7002 30.4565 62.7243 32.9887 76.2508 50.6603C77.9229 52.8384 79.402 55.2633 80.6132 57.8813C80.656 57.935 80.6882 58.0101 80.7096 58.0637C83.3356 54.8448 87.3764 54.3942 91.0207 56.0144C95.2115 57.892 98.8772 62.4843 99.3274 68.8148Z" fill="#E8C8AA"/>
    <path d="M76.2612 50.6599C74.6213 61.2392 53.3133 63.7822 40.4835 59.5869C37.5145 63.2671 29.8294 64.8766 24.2773 62.1834C25.1348 53.589 36.2068 55.1019 36.2068 55.1019C36.6999 30.456 62.7347 32.9989 76.2612 50.6599Z" fill="#F7EBC0"/>
    <path d="M91.0323 56.0143C91.3217 62.1946 84.6764 63.0852 79.6816 60.9607C79.6816 60.9607 80.1104 59.7483 80.6249 57.8813C80.6677 57.9349 80.6999 58.0101 80.7213 58.0637C83.3473 54.8448 87.3988 54.4049 91.0323 56.0143Z" fill="#F7EBC0"/>
    <path d="M369.921 70.1233H281.441C281.441 61.2607 298.484 51.5182 307.541 56.2929C313.704 33.8144 337.509 27.999 348.174 36.7007C351.293 39.2436 353.276 43.0311 353.361 48.0204C358.978 45.9174 363.983 47.8058 367.37 51.4646V51.486C371.797 56.2714 373.405 64.0933 369.921 70.1233Z" fill="#E8C8AA"/>
    <path d="M367.371 51.4646V51.4861C367.81 63.4924 349.964 61.9045 345.838 60.2736C341.711 58.6427 353.362 48.0204 353.362 48.0204C358.978 45.9174 363.984 47.8059 367.371 51.4646Z" fill="#F7EBC0"/>
    <path d="M348.817 36.9147C343.983 52.4189 329.224 61.8287 310.51 60.1549C310.51 60.1549 309.599 62.848 282.514 70.1227C282.514 61.3137 299.449 51.6357 308.441 56.3781C314.572 34.0499 338.227 28.2667 348.817 36.9147Z" fill="#F7EBC0"/>
    <path d="M236.156 42.8281C241.654 44.9096 243.852 40.0384 245.631 41.3581C247.41 42.6671 244.248 46.9804 240.186 46.4439C236.938 46.0148 236.124 43.6006 236.124 43.6006C236.145 43.5899 235.223 46.0362 231.504 46.2508C228.235 46.4332 225.245 41.6478 228.45 41.1328C231 40.7144 230.743 45.2744 236.156 42.8281Z" fill="#517BA1"/>
    <path d="M236.102 47.7422C237.474 47.7422 239.168 51.1328 244.988 49.0834C255.127 45.5104 247.314 62.871 236.327 50.4675C225.588 62.3453 221.311 48.9976 227.228 49.5019C233.862 50.0705 234.441 47.7422 236.102 47.7422Z" fill="#517BA1"/>
    <path d="M236.381 56.5295C237.378 56.5724 238.996 62.7956 244.752 60.3385C248.621 58.6969 252.78 59.6304 252.63 61.9265C252.394 65.5854 242.169 70.6176 236.284 58.9759C234.559 63.1605 227.763 69.1584 222.522 64.2871C218.117 60.1991 223.508 56.9479 228.117 60.6175C231.74 63.5038 235.234 56.4866 236.381 56.5295Z" fill="#517BA1"/>
    <path d="M236.253 67.334C237.7 67.334 238.407 72.9992 246.135 69.3511C252.705 66.2503 253.606 73.0421 248.804 74.8232C238.643 78.6 236.263 68.7932 236.263 68.7932C235.92 69.04 233.766 74.7052 227.689 74.9627C220.143 75.2739 219.564 67.57 225.899 69.0722C234.634 71.1537 234.924 67.334 236.253 67.334Z" fill="#517BA1"/>
    <path d="M236.178 55.0709C236.874 55.0388 238.653 54.5452 238.653 55.1782C238.653 55.6182 236.178 55.7577 236.178 55.7577C236.178 55.7577 233.873 55.5645 233.873 55.1246C233.862 54.6096 234.988 54.9851 236.178 55.0709Z" fill="#562A4A"/>
    <path d="M236.242 65.5319C236.939 65.4997 238.718 65.0061 238.718 65.6392C238.718 66.0792 236.242 66.2187 236.242 66.2187C236.242 66.2187 233.938 66.0256 233.938 65.5856C233.927 65.0812 235.052 65.4568 236.242 65.5319Z" fill="#562A4A"/>
    <path d="M236.091 39.8243C236.091 39.8243 237.988 38.4939 238.245 39.2879C238.395 39.76 236.091 40.5325 236.091 40.5325C236.091 40.5325 234.022 39.8458 234.065 39.2879C234.129 38.6119 236.091 39.8243 236.091 39.8243Z" fill="#562A4A"/>
    <path d="M236.766 85.4676L236.552 37.367C236.541 36.7017 236.38 36.3584 236.155 36.3584C235.952 36.3584 235.802 37.367 235.802 37.367L235.748 85.4676H236.766Z" fill="#562A4A"/>
    <path d="M232.789 35.2851C233.625 34.3409 234.804 36.2937 235.737 36.0469C236.112 32.4203 234.033 26.9375 236.262 27.3775C238.716 27.871 237.162 34.137 236.434 36.1005C237.645 35.9181 239.252 34.2229 240.067 35.607C240.796 36.8409 238.513 37.4954 236.101 37.4954C234.022 37.4954 231.546 36.7014 232.789 35.2851Z" fill="#517BA1"/>
    <path d="M217.613 43.2574C218.888 43.3862 220.003 47.0557 225.577 45.3819C231.15 43.7081 232.265 48.0965 229.114 50.9827C227.26 52.678 219.489 51.4119 217.592 46.3046C215.587 50.7467 209.038 52.1844 206.895 49.4913C203.518 45.2531 207.463 43.472 210.539 45.5106C213.647 47.56 216.67 43.1609 217.613 43.2574Z" fill="#517BA1"/>
    <path d="M217.571 19.9633C220.293 19.8775 224.023 16.5513 225.235 18.5792C226.296 20.3388 222.587 21.7873 217.657 21.7873C214.227 21.7873 208.417 20.5427 210.711 18.2037C212.48 16.4226 214.656 20.0599 217.571 19.9633Z" fill="#517BA1"/>
    <path d="M217.699 27.1952C218.975 27.9033 220.926 29.0085 222.769 27.2703C225.427 24.7596 226.864 23.1073 228.225 25.4141C229.993 28.4184 221.108 32.5706 217.71 28.3325C213.884 32.6457 204.033 28.9548 207.849 24.6631C210.207 22.0022 210.389 30.5213 217.699 27.1952Z" fill="#517BA1"/>
    <path d="M217.721 33.9648C219.093 33.9648 221.719 38.6858 226.413 36.0678C229.136 34.5442 231.537 39.0614 227.796 40.7244C225.149 41.894 220.797 40.6279 217.721 36.1751C216.349 39.1901 211.633 42.3017 209.414 41.0249C205.727 38.9112 207.024 35.2739 210.872 36.7653C213.005 37.5914 216.349 33.9648 217.721 33.9648Z" fill="#517BA1"/>
    <path d="M217.709 24.6837C217.709 24.6837 220.26 23.6966 220.442 24.2867C220.614 24.8554 217.698 25.4991 217.698 25.4991C217.698 25.4991 215.212 24.8661 215.287 24.394C215.373 23.7395 217.709 24.6837 217.709 24.6837Z" fill="#562A4A"/>
    <path d="M217.72 31.1436C218.46 31.1114 220.336 30.5857 220.325 31.2509C220.325 31.7123 217.72 31.8625 217.72 31.8625C217.72 31.8625 215.287 31.6586 215.287 31.1973C215.276 30.6608 216.466 31.0578 217.72 31.1436Z" fill="#562A4A"/>
    <path d="M217.773 40.585C218.512 40.5528 220.388 40.0271 220.377 40.6923C220.377 41.1537 217.773 41.3039 217.773 41.3039C217.773 41.3039 215.34 41.1 215.34 40.6387C215.34 40.1129 216.519 40.4992 217.773 40.585Z" fill="#592E43"/>
    <path d="M218.47 85.4675L218.148 17.6889C218.095 14.1696 217.945 14.4486 217.688 14.4486C217.441 14.4486 217.345 14.1696 217.27 17.6889V85.4675H218.47Z" fill="#562A4A"/>
    <path d="M217.773 16.3579C220.399 16.3579 223.883 13.0747 222.832 11.7871C221.793 10.4996 219.392 14.4373 218.813 14.4373C218.234 14.4373 221.943 2.9782 217.998 0.746457C214.054 -1.48528 217.988 14.2978 216.991 14.2978C216.294 14.2978 215.297 11.6798 214.033 12.109C212.007 12.785 214.794 16.3579 217.773 16.3579Z" fill="#517BA1"/>
    <path d="M192.993 36.0793C194.665 37.8389 189.788 41.2295 186.712 38.032C184 40.8217 178.813 37.6565 180.399 36.0256C181.825 34.5664 183.7 37.3883 186.637 37.3561C189.574 37.3132 191.836 34.8561 192.993 36.0793Z" fill="#517BA1"/>
    <path d="M186.563 42.5596C191.151 45.0596 193.927 41.9802 194.966 43.4823C196.317 45.4458 191.89 48.7934 186.563 44.1583C180.679 50.2312 175.352 41.1755 180.475 42.8922C184.505 44.2441 186.563 42.5596 186.563 42.5596Z" fill="#517BA1"/>
    <path d="M186.701 46.3154C186.701 46.3154 188.588 50.1995 193.036 49.1266C197.495 48.0536 200.924 46.9592 201.514 48.7403C202.811 52.6351 196.605 54.8883 191.257 52.9892C187.698 51.7338 186.787 48.8154 186.787 48.8154C181.975 58.2466 170.57 51.9913 172.596 48.2253C174.557 44.6202 182.853 52.9892 186.701 46.3154Z" fill="#517BA1"/>
    <path d="M186.552 54.5986C188.095 57.2059 196.241 57.1093 199.167 56.9377C202.093 56.766 204.387 61.6479 198.685 62.1415C192.629 62.6672 187.484 59.1265 186.627 56.7231C183.475 66.0256 169.263 61.4763 171.707 57.4956C173.733 54.2124 181.16 61.0793 186.552 54.5986Z" fill="#517BA1"/>
    <path d="M188.535 34.9955C188.717 35.4891 186.627 36.1436 186.627 36.1436C186.627 36.1436 184.43 35.2423 184.687 34.8239C184.944 34.4054 186.638 35.4998 186.638 35.4998C186.638 35.4998 188.31 34.3732 188.535 34.9955Z" fill="#562A4A"/>
    <path d="M188.47 40.7792C188.609 41.2084 186.584 41.4016 186.584 41.4016C186.584 41.4016 184.687 41.2299 184.772 40.7578C184.847 40.3179 186.348 40.79 186.584 40.8543C186.584 40.8436 188.342 40.35 188.47 40.7792Z" fill="#562A4A"/>
    <path d="M189.124 53.2258C189.006 53.6872 186.713 53.6872 186.713 53.6872C186.713 53.6872 184.215 53.773 184.301 53.1829C184.355 52.7429 186.67 53.1292 186.67 53.1292C186.67 53.1292 189.285 52.5927 189.124 53.2258Z" fill="#562A4A"/>
    <path d="M186.959 32.1313C186.959 30.4146 186.241 30.3395 186.23 32.1313L186.188 95.8865H187.099L186.959 32.1313Z" fill="#562A4A"/>
    <path d="M186.819 32.8284C184.289 33.043 180.538 27.7426 182.789 26.8735C184.129 26.3585 186.037 30.5537 186.037 30.5537C186.037 30.5537 183.314 15.6289 186.519 15.6289C190.238 15.6289 187.355 30.4679 187.355 30.4679C187.355 30.4679 189.574 27.0881 191.267 27.528C193.711 28.161 189.198 32.6245 186.819 32.8284Z" fill="#517BA1"/>
    <path d="M362.097 116.475L251.881 83.9857C255.493 68.9321 271.656 76.6574 271.656 76.6574C278.848 57.0224 299.449 64.4257 301.035 74.49C314.765 55.1876 332.033 58.503 339.696 68.5459C344.198 74.4471 345.377 82.6767 340.543 89.9942C351.529 83.7496 359.043 99.4577 352.301 106.604C358.057 105.724 362.858 106.872 363.887 110.016C364.423 111.646 363.962 113.792 362.097 116.475Z" fill="#567F73"/>
    <path d="M339.695 68.5455C327.391 60.6163 308.666 67.9983 301.088 75.8094C298.397 67.4725 281.42 62.8909 272.513 77.8159C260.69 72.7408 253.402 84.4468 253.402 84.4468L251.891 83.9962C255.503 68.9425 271.666 76.6678 271.666 76.6678C278.858 57.0326 299.459 64.436 301.045 74.5004C314.764 55.1871 332.042 58.5132 339.695 68.5455Z" fill="#679470"/>
    <path d="M362.096 116.475L277.347 91.4969L277.336 91.0248C297.733 91.4647 300.659 77.248 300.659 77.248C304.25 88.7501 339.888 89.2866 343.554 81.8188C342.686 95.5849 326.297 97.0226 326.297 97.0226C333.854 109.179 354.465 103.364 354.829 100.499C354.122 106.787 349.685 108.686 349.685 108.686C348.795 111.647 360.682 112.945 363.876 110.027C364.422 111.647 363.961 113.793 362.096 116.475Z" fill="#447075"/>
    <path d="M379 130.156V297.001H0V115.027C0 115.027 34.6631 89.4481 115.426 79.137C120.935 78.4288 126.658 77.7958 132.596 77.2486C148.063 75.8216 165.009 74.9632 183.498 74.8988C183.583 74.8988 183.68 74.8988 183.766 74.8988C188.203 74.8881 192.565 74.9417 196.863 75.0597C215.428 75.5533 232.588 77.2057 248.333 79.6305C257.443 81.0361 266.093 82.6992 274.261 84.5661C343.833 100.392 379 130.156 379 130.156Z" fill="#8AAB8E"/>
    <path d="M379.001 151.325V212.924C371.059 218.213 359.022 219.329 342.023 212.881C283.501 190.671 271.71 200.113 194.324 236.379C116.938 272.645 64.9539 212.881 78.6733 182.087C92.3928 151.293 156.06 136.808 146.628 96.1433C144.462 86.8086 139.285 80.8645 132.597 77.2486C148.064 75.8216 165.009 74.9632 183.499 74.8988C183.584 74.8988 183.681 74.8988 183.767 74.8988C188.204 74.8881 192.566 74.9417 196.864 75.0597C215.428 75.5533 232.589 77.2057 248.334 79.6305C271.71 89.5983 270.885 110.317 279.964 117.602C303.608 136.604 328.85 135.789 350.029 139.18C359.944 140.768 368.979 143.268 376.536 149.147C377.382 149.813 378.208 150.531 379.001 151.325Z" fill="#A5CA80"/>
    <path d="M166.134 195.467C178.042 161.411 193.508 133.858 179.842 91.3257C177.431 83.8257 173.304 78.6219 168.149 75.1348C155.522 75.4888 143.679 76.2185 132.596 77.2485C139.284 80.8644 144.461 86.8085 146.626 96.1432C156.058 136.808 92.3914 151.293 78.672 182.087C67.4606 207.259 100.152 251.797 154.751 247.398C171.428 226.84 159.392 214.737 166.134 195.467Z" fill="#855D60"/>
    <path d="M305.064 202.066C315.633 203.729 327.359 207.313 342.021 212.871C359.021 219.319 371.057 218.203 378.999 212.914V193.439C349.106 186.894 331.174 189.491 305.064 202.066Z" fill="#A5CA80"/>
    <path d="M123.046 98.9328C116.187 120.821 109.863 124.147 95.3931 125.435C80.9234 126.722 72.1343 127.152 67.0967 137.559C62.0591 147.967 42.5518 134.018 24.2234 151.293C5.89508 168.568 42.0158 189.49 26.4743 215.456C10.9327 241.421 9.43213 275.649 46.9463 277.902C69.6048 279.265 84.8891 280.155 97.2795 297.001H0V115.027C0 115.027 34.6631 89.4478 115.426 79.1367C121.449 86.0787 124.901 93.01 123.046 98.9328Z" fill="#779B89"/>
    <path d="M379 130.156V138.987C376.974 138.139 374.874 137.377 372.676 136.712C367.296 135.092 361.401 134.116 354.991 134.116C318.227 134.116 300.864 119.094 287.68 99.0298C283.671 92.9354 278.923 88.193 274.25 84.5449C343.833 100.392 379 130.156 379 130.156Z" fill="#779B89"/>
    <path d="M180.754 267.548C180.754 267.548 244.86 291.764 267.304 286.603L285.686 243.385L180.754 267.548Z" fill="#855D60"/>
    <path d="M233.198 297H378.999V246.453C377.585 247.011 376.127 247.44 374.626 247.698C315.761 258.106 296.876 225.895 252.523 209.576C216.263 196.228 152.114 200.155 157.902 263.556C195.962 261.206 207.377 280.466 231.73 296.067C232.223 296.378 232.705 296.689 233.198 297Z" fill="#855D60"/>
    <path d="M183.937 147.613C160.764 147.387 154.966 147.237 142.929 152.623C137.527 155.563 138.32 183.997 138.32 183.997C138.32 183.997 180.036 189.909 202.244 185.563C202.255 185.563 201.612 147.784 183.937 147.613Z" fill="#646E8A"/>
    <path d="M225.063 141.797C217.282 138.535 196.938 144.222 197.732 150.928C198.525 157.634 206.521 178.696 206.521 178.696L246.564 175.434L225.063 141.797Z" fill="#646E8A"/>
    <path d="M142.93 152.634C151.708 150.199 169.511 149.083 172.48 150.735C175.449 152.387 183.338 184.007 183.338 184.007L212.095 179.587C212.095 179.587 191.505 142.452 221.227 141.915C212.395 139.523 194.71 137.409 172.362 141.915C150.014 146.411 142.93 152.634 142.93 152.634Z" fill="#522B35"/>
    <path d="M161.321 162.248C161.417 160.917 164.772 158.568 167.623 160.37C166.508 161.207 164.075 161.54 164.075 161.54C163.239 160.156 161.289 162.645 161.321 162.248Z" fill="#CE6659"/>
    <path d="M162.823 181.132C159.575 174.276 166.263 166.819 165.727 164.147C165.234 161.658 163.198 162.484 163.08 161.668C168.418 160.746 168.096 158.213 166.821 158.213C165.534 158.213 162.523 160.713 161.001 159.533C160.711 159.308 160.486 159.061 160.293 158.814C159.489 157.763 159.479 156.615 159.479 156.583C159.479 156.583 160.465 156.69 161.44 156.54C162.169 156.422 162.898 156.175 163.23 155.628C164.002 154.351 165.116 152.977 169.189 153.417C174.763 154.383 174.088 169.834 180.722 175.692C180.722 175.713 182.309 183.932 162.823 181.132Z" fill="#D8C4B4"/>
    <path d="M161.439 156.55C161.439 157.495 160.571 158.149 160.292 158.815C159.296 157.741 159.478 156.615 159.478 156.582C159.478 156.593 159.928 156.55 161.439 156.55Z" fill="#522B35"/>
    <path d="M167.924 152.849C168.128 154.179 169.596 160.199 172.554 159.716C175.523 159.233 171.825 152.849 171.825 152.849C171.825 152.849 167.774 151.937 167.924 152.849Z" fill="#B37D5A"/>
    <path d="M222.137 140.22C224.892 138.106 237.85 136.701 246.414 149.383C244.774 157.269 237.7 158.589 237.7 158.589C237.7 158.589 233.831 163.6 234.131 168.965C225.128 169.254 211.955 170.327 211.955 170.327C211.955 170.327 210.776 156.164 223.917 152.935C226.929 152.398 229.758 141.486 222.137 140.22Z" fill="#4E5A49"/>
    <path d="M230.38 148.085C228.858 155.305 216.071 155.949 216.842 158.953C217.239 160.702 217.218 162.151 216.918 163.342C215.374 169.34 206.467 168.417 206.188 163.224C205.728 154.844 208.654 149.587 212.437 145.939C213.434 144.973 214.484 144.125 215.546 143.353C221.033 139.394 225.074 139.984 225.074 139.984C225.074 139.984 232.02 140.338 230.38 148.085Z" fill="#637F5A"/>
    <path d="M216.917 163.331C215.374 169.329 206.467 168.406 206.188 163.213C205.728 154.833 208.654 149.576 212.437 145.928C207.56 157.601 209.254 164.35 214.538 163.61C215.363 163.492 216.156 163.395 216.917 163.331Z" fill="#597253"/>
    <path d="M211.644 159.866C208.386 162.194 210.315 165.928 214.463 165.928C216.778 165.928 218.665 162.344 217.528 160.896C216.392 159.447 214.356 157.934 211.644 159.866Z" fill="#4E5A49"/>
    <path d="M248.398 160.756C247.347 164.254 244.914 167.333 241.002 168.438C234.871 170.155 223.617 166.314 225.696 158.599C225.803 158.202 225.932 157.848 226.093 157.526C228.59 152.333 236.972 156.679 237.701 158.599C247.422 153.245 246.157 148.889 246.157 148.889C248.891 151.4 249.716 156.389 248.398 160.756Z" fill="#637F5A"/>
    <path d="M248.397 160.767C247.347 164.254 244.914 167.333 241.002 168.438C234.871 170.155 223.617 166.314 225.696 158.599C225.803 158.202 225.932 157.848 226.093 157.526C227.99 162.473 233.531 165.177 237.84 165.177C242.202 165.177 245.439 162.998 248.397 160.767Z" fill="#597253"/>
    <path d="M227.786 157.398C234.646 158.127 233.263 164.994 227.486 163.353C223.724 162.29 223.477 156.936 227.786 157.398Z" fill="#4E5A49"/>
    <path d="M244.476 132.795C244.733 133.75 240.146 136.121 238.677 134.039C238.624 133.954 238.57 133.868 238.527 133.771C240.51 132.001 243.093 130.724 244.476 132.795Z" fill="#522B35"/>
    <path d="M239.727 149.511C241.967 151.089 246.779 147.14 240.413 141.722C238.087 139.748 236.833 147.473 239.727 149.511Z" fill="#522B35"/>
    <path d="M247.658 139.083C248.162 139.984 247.165 141.755 246.35 142.184C245.536 142.602 245.804 139.083 245.804 139.083C245.804 139.083 247.24 138.332 247.658 139.083Z" fill="#D77457"/>
    <path d="M246.468 144.405C246.34 145.113 245.675 145.671 243.553 145.971C241.227 147.269 241.42 148.525 240.198 148.267C238.591 147.935 239.545 141.84 239.545 141.84C239.545 141.84 239.652 141.282 239.748 140.553C239.909 139.49 240.038 138.074 239.78 137.688C239.384 137.076 242.578 134.726 244.936 136.347C245.086 136.454 245.236 136.572 245.386 136.711C246.083 137.387 246.2 138.718 246.2 140.016V140.027C246.211 140.928 246.168 141.819 246.243 142.473C246.351 143.181 246.576 143.836 246.468 144.405Z" fill="#E19A65"/>
    <path d="M246.47 144.405C246.341 145.113 245.676 145.671 243.554 145.971C241.228 147.269 241.432 148.45 240.199 148.267C237.97 147.945 238.935 142.506 239.46 142.506C239.46 142.506 239.663 141.282 239.749 140.553C240.564 142.548 241.314 144.619 242.182 144.576C243.222 144.533 245.001 145.081 246.47 144.405Z" fill="#BA7E5F"/>
    <path d="M246.447 143.095C245.976 141.904 245.729 138.224 245.086 136.647C245.086 136.647 245.097 136.636 245.107 136.593C245.257 136.701 245.407 136.819 245.558 136.958C246.254 137.645 246.254 137.645 246.447 143.095Z" fill="#9C3C2B"/>
    <path d="M246.49 143.965C246.501 143.975 246.501 143.975 246.49 143.997V144.008C246.479 144.158 246.447 144.297 246.415 144.437C246.34 144.694 246.222 144.93 246.061 145.145C246.061 145.156 246.051 145.156 246.051 145.156C245.675 145.639 245.011 145.96 243.918 145.939C243.264 145.928 242.438 145.789 241.442 145.488C240.702 145.274 240.048 143.46 239.737 142.473C239.737 142.463 239.737 142.463 239.737 142.463C239.652 142.194 239.598 141.99 239.566 141.905V141.894C239.555 141.872 239.555 141.862 239.555 141.862C239.555 141.862 239.544 141.593 239.502 141.207C239.448 140.681 239.33 139.93 239.116 139.287C239.084 139.179 239.041 139.072 238.998 138.965C238.558 137.935 238.912 136.615 239.695 135.606C240.831 134.126 242.889 133.332 244.711 135.091C244.829 135.209 244.947 135.327 245.054 135.456C245.525 136.003 245.954 136.722 245.858 137.28C245.847 137.312 245.847 137.334 245.836 137.366C245.783 137.559 245.665 137.72 245.44 137.838C245.225 137.967 244.904 138.053 244.464 138.074C242.964 138.149 240.616 138.203 240.616 138.203C240.766 139.501 239.834 140.027 240.434 141.272C241.495 143.493 241.474 141.712 243.821 141.379C245.204 141.175 245.75 142.731 245.933 141.894C245.965 141.744 245.997 141.508 246.008 141.164C246.04 141.218 246.126 141.433 246.211 141.733C246.211 141.744 246.211 141.744 246.211 141.744C246.254 141.872 246.286 142.033 246.34 142.194C246.372 142.345 246.404 142.506 246.436 142.666C246.436 142.677 246.436 142.677 246.436 142.677C246.511 143.096 246.533 143.525 246.49 143.965Z" fill="#B1422D"/>
    <path d="M244.711 135.081C243.575 134.598 240.563 135.918 239.695 135.596C240.821 134.115 242.879 133.321 244.711 135.081Z" fill="#9C3C2B"/>
    <path d="M246.49 143.997C246.48 144.147 246.447 144.287 246.415 144.426C246.34 144.684 246.222 144.92 246.062 145.135C246.062 145.145 246.051 145.145 246.051 145.145C245.676 145.628 245.011 145.95 243.918 145.929C243.264 145.918 242.439 145.778 241.442 145.478C240.702 145.263 240.049 143.45 239.738 142.463C239.738 142.452 239.738 142.452 239.738 142.452C239.652 142.184 239.598 141.98 239.566 141.894V141.883C239.556 141.862 239.556 141.851 239.556 141.851C239.556 141.851 239.545 141.583 239.502 141.197C239.513 141.143 239.513 141.111 239.513 141.111C240.091 143.504 241.624 144.941 244.711 144.437C245.418 144.308 246.008 144.158 246.49 143.997Z" fill="#9C3C2B"/>
    <path d="M239.727 142.463C239.513 141.121 239.759 139.737 239.373 139.34C235.804 138.214 237.948 143.096 239.727 142.463Z" fill="#D77457"/>
    <path d="M240.284 129.426C240.198 128.986 240.649 128.847 240.82 129.276L240.606 129.458L240.284 129.426Z" fill="#A4522E"/>
    <path d="M244.475 132.795C243.093 130.724 240.509 132.001 238.526 133.771C237.508 131.668 239.33 128.836 241.763 129.297C243.896 129.694 244.475 132.795 244.475 132.795Z" fill="#D89B33"/>
    <path d="M244.325 128.289C247.337 128.771 244.389 133.181 244.389 133.181C244.389 133.181 244.336 130.488 239.92 132.709C241.871 130.198 241.313 127.806 244.325 128.289Z" fill="#A4522E"/>
    <path d="M192.17 145.08C191.087 146.282 192.77 150.07 193.67 150.123C194.571 150.188 209.437 149.812 210.284 149.758C212.309 149.64 212.845 145.37 212.149 145.016C210.605 144.233 193.477 144.576 192.17 145.08Z" fill="#855D60"/>
    <path d="M200.455 141.797C200.809 145.434 201.345 146.947 202.652 146.947C203.81 146.947 204.11 144.393 204.046 141.797H200.455Z" fill="#5B3E4F"/>
    <path d="M197.184 158.664C197.131 160.445 194.558 163.428 191.086 164.35C189.574 164.747 186.755 164.844 185.759 162.484C185.341 161.486 185.437 160.477 185.823 159.522C186.016 159.039 186.295 158.567 186.616 158.117C186.948 157.645 187.334 157.194 187.742 156.776C187.752 156.765 187.752 156.765 187.752 156.765C189.36 155.123 191.225 153.997 191.225 153.997C191.225 153.997 192.661 154.801 194.14 155.735C195.191 156.411 196.263 157.14 196.841 157.698C197.088 157.945 197.195 158.278 197.184 158.664Z" fill="#BE8B44"/>
    <path d="M191.419 154.061C189.382 154.479 185.481 152.473 186.402 150.059C187.731 146.604 191.461 152.108 191.654 153.428C196.767 152.172 199.522 153.717 195.309 155.691C193.573 156.775 191.419 154.061 191.419 154.061Z" fill="#BD4837"/>
    <path d="M197.184 158.664C197.131 160.445 194.558 163.427 191.086 164.35C189.574 164.747 186.755 164.844 185.759 162.483C185.341 161.485 185.437 160.477 185.823 159.522C187.945 162.161 193.551 161.453 197.184 158.664Z" fill="#BA7E4A"/>
    <path d="M191.762 164.93C191.633 163.449 192.352 160.273 192.416 159.78C190.412 159.78 188.075 158.91 188.45 164.49C188.825 170.069 192.105 167.473 192.105 167.473L191.762 164.93Z" fill="#AB6F51"/>
    <path d="M188.503 154.876C186.659 156.099 186.37 158.417 186.992 160.069C187.613 161.721 188.782 162.848 189.693 163.041C190.604 163.234 192.072 161.754 192.469 159.286C193.401 156.185 191.761 152.719 188.503 154.876Z" fill="#E19A65"/>
    <path d="M193.872 158.685C193.851 159.661 192.232 160.284 192.232 160.284L192.554 157.795C192.565 157.784 193.905 157.237 193.872 158.685Z" fill="#D77457"/>
    <path d="M186.981 160.198C186.681 158.449 187.742 156.904 187.742 156.904L187.26 156.303C187.27 156.303 186.006 156.979 186.981 160.198Z" fill="#CC9950"/>
    <path d="M192.382 159.726C192.382 159.726 192.039 158.642 192.093 156.818C191.825 157.945 187.077 158.406 185.79 156.367C185.544 155.992 185.426 155.541 185.48 154.983C187.773 155.702 188.277 153.063 191.117 153.749C191.996 153.964 192.468 154.629 192.672 155.434C193.143 157.215 192.382 159.726 192.382 159.726Z" fill="#E0C269"/>
    <path d="M192.383 159.726C192.383 159.726 192.04 158.642 192.093 156.818C191.826 157.945 187.077 158.406 185.791 156.368C188.181 157.719 192.597 156.604 192.672 155.434C193.144 157.215 192.383 159.726 192.383 159.726Z" fill="#BA7E4A"/>
    <path d="M210.164 160.101L208.074 177.848L200.936 177.161L193.797 179.822C193.797 179.822 184.494 178.256 183.84 178.256L175.951 181.389L172.5 163.299L181.375 161.689L191.814 163.91L202.125 157.784L210.164 160.101Z" fill="#9C8F8F"/>
    <path d="M202.126 157.784L200.925 177.161L193.787 179.822L191.814 163.91L202.126 157.784Z" fill="#C6ABA0"/>
    <path d="M210.947 166.464C211.269 164.661 210.433 164.393 209.436 164.511C208.44 164.619 206.65 165.176 206.596 167.354C206.564 168.814 208.643 167.891 209.308 168.449C210.658 167.987 210.947 166.464 210.947 166.464Z" fill="#E19A65"/>
    <path d="M213.787 166.583C212.929 176.947 227.388 177.634 230.497 171.593C237.785 157.452 214.837 153.793 213.787 166.583ZM227.86 169.823C226.006 173.782 218.363 172.956 217.517 169.276C215.244 159.319 232.479 159.962 227.86 169.823Z" fill="#522B35"/>
    <path d="M229.307 160.885C228.042 160.467 227.86 162.108 227.86 164.158C225.995 164.501 223.841 163.814 223.433 161.636C223.401 161.443 223.369 161.25 223.347 161.067C223.08 159.115 223.444 157.462 225.684 157.516C227.035 157.548 228.278 157.795 228.921 158.589C229.339 159.093 229.51 159.823 229.307 160.885Z" fill="#E19A65"/>
    <path d="M229.307 160.885C228.042 160.467 227.86 162.108 227.86 164.157C225.995 164.501 223.841 163.814 223.433 161.636C223.401 161.443 223.369 161.25 223.348 161.067C225.052 161.797 226.906 161.346 227.131 160.112C227.27 159.329 228.106 158.857 228.921 158.589C229.339 159.093 229.511 159.823 229.307 160.885Z" fill="#BA7E5F"/>
    <path d="M216.21 167.055C214.334 166.089 213.305 165.027 213.219 163.846C213.144 162.881 213.723 161.829 214.999 160.681C216.156 159.651 217.678 160.842 219.104 162.248C219.372 162.505 219.629 162.763 219.886 163.02C221.526 164.662 219.629 168.814 216.21 167.055Z" fill="#E19A65"/>
    <path d="M216.209 167.055C214.333 166.089 213.304 165.027 213.219 163.847C215.234 165.467 217.806 165.242 219.017 162.441C219.05 162.366 219.082 162.302 219.114 162.248C219.382 162.506 219.639 162.763 219.896 163.021C221.525 164.662 219.628 168.814 216.209 167.055Z" fill="#BA7E5F"/>
    <path d="M137.612 113.653C136.422 115.638 137.451 127.816 139.423 128.943C141.385 130.07 156.733 124.351 156.733 124.351L158.48 140.681C158.48 140.681 175.523 137.355 183.454 137.087C185.137 123.675 183.068 104.866 174.14 106.089C165.212 107.312 159.22 109.147 150.603 110.445C139.091 112.183 138.802 111.668 137.612 113.653Z" fill="#ECC654"/>
    <path d="M159.209 140.327C159.209 140.327 151.996 143.911 148.845 143.921C147.237 143.921 143.1 135.445 140.57 127.741C140.313 126.958 140.077 126.185 139.852 125.434C139.005 122.527 138.469 119.866 138.491 118.01C138.502 115.864 142.457 115.027 150.356 111.432C154.429 109.587 156.058 113.568 157.044 120.209C157.152 120.874 157.237 121.561 157.323 122.28C157.988 127.462 158.373 133.879 159.209 140.327Z" fill="#D89B33"/>
    <path d="M157.334 122.28C154.076 121.69 147.087 121.433 140.581 127.741C140.324 126.958 140.088 126.186 139.863 125.435C143.829 120.917 152.029 119.179 157.055 120.22C157.163 120.875 157.248 121.561 157.334 122.28Z" fill="#5B3E4F"/>
    <path d="M216.81 136.507C214.441 136.636 211.987 136.582 209.768 136.464C205.245 136.218 201.697 135.66 201.697 135.66L202.083 112.355C202.083 112.355 205.127 110.585 208.964 109.276C214.516 107.355 221.73 106.411 223.766 113.203C226.703 123.009 223.992 136.121 216.81 136.507Z" fill="#E2B252"/>
    <path d="M218.183 134.748C217.657 134.984 216.628 135.123 215.385 135.188C214.892 135.22 214.367 135.231 213.82 135.241C210.369 135.295 206.285 135.037 206.285 135.037L206.585 116.636C208.397 114.007 210.819 112.151 213.07 111.025C213.542 110.799 213.992 110.595 214.442 110.424C216.296 109.726 217.893 109.565 218.783 109.92C223.317 111.754 226.586 127.784 218.183 134.748Z" fill="#B78937"/>
    <path d="M209.768 135.198C209.779 135.649 209.779 136.068 209.768 136.454C205.245 136.207 201.697 135.649 201.697 135.649L202.083 112.345C202.083 112.345 205.127 110.574 208.964 109.265C209.104 110.274 209.232 111.765 209.329 113.546C209.661 119.78 209.747 129.619 209.768 135.198Z" fill="#522B35"/>
    <path d="M215.385 135.177C214.891 135.209 214.366 135.22 213.82 135.231C215.556 128.396 217.035 116.207 213.059 111.014C213.53 110.789 213.98 110.585 214.431 110.413C219.211 118.181 216.628 130.488 215.385 135.177Z" fill="#BCC5A6"/>
    <path d="M178.578 99.1577C172.833 99.1577 178.417 135.767 178.417 135.767L205.738 136.11C205.738 136.11 208.986 103.514 202.812 100.606C194.581 101.679 178.578 99.1577 178.578 99.1577Z" fill="#5B738A"/>
    <path d="M198.772 120.639C195.053 120.639 193.231 120.252 191.248 115.596C189.265 110.928 182.984 97.3018 176.553 101.98C176.543 102.044 176.703 100.016 176.703 100.016C176.703 100.016 182.631 95.7353 189.04 105.671C195.45 115.606 193.874 118.128 198.783 118.128C203.692 118.128 205.064 118.021 206.597 117.312C206.607 119.051 206.597 120.413 206.597 120.413L198.772 120.639Z" fill="#5B3E4F"/>
    <path d="M202.254 118.954C198.138 118.954 195.684 120.563 192.275 113.375C188.867 106.186 184.397 97.4841 176.659 101.508C175.726 98.4712 180.475 96.2502 189.103 99.1579C197.731 102.066 197.334 97.3982 202.243 98.4712C207.152 99.5442 208.417 115.36 206.123 118.117C204.441 119.448 202.254 118.954 202.254 118.954Z" fill="#69A0B4"/>
    <path d="M173.143 118.16C169.789 118.385 167.27 119.33 167.881 123.825C168.492 128.321 171.011 138.289 171.011 138.289L182.383 137.742L173.143 118.16Z" fill="#522B35"/>
    <path d="M192.843 137.076H174.129C174.129 137.076 172.221 123.89 171.61 118.332C171.085 113.525 173.368 109.684 179.338 108.75C180.26 108.6 181.278 108.525 182.371 108.525C185.19 108.525 187.13 109.061 188.459 109.898H188.47C191.385 111.744 191.418 115.006 191.525 117.162C191.803 122.162 192.843 137.076 192.843 137.076Z" fill="#BEBA41"/>
    <path d="M190.828 137.076H186.53C184.065 114.501 182.403 109.78 179.338 108.761C180.26 108.611 181.278 108.536 182.371 108.536C185.19 108.536 187.13 109.072 188.459 109.909H188.47C189.799 114.694 190.56 130.435 190.828 137.076Z" fill="#D4D156"/>
    <path d="M152.874 238.986C127.579 218.02 252.801 191.443 265.353 240.831C261.526 253.277 185.705 266.185 152.874 238.986Z" fill="#2B1721"/>
    <path d="M158.492 177.956C158.492 189.887 151.589 199.747 142.607 201.4C141.739 201.561 140.839 201.646 139.938 201.646C129.691 201.646 121.385 191.035 121.385 177.956C121.385 164.876 129.681 154.265 139.938 154.265C141.771 154.265 143.54 154.608 145.212 155.23C152.886 158.138 158.492 167.205 158.492 177.956Z" fill="#522B35"/>
    <path d="M158.492 177.956C158.492 189.887 151.589 199.747 142.607 201.4C138.609 199.876 135.169 196.69 132.789 192.441C131.814 190.702 131.021 188.782 130.442 186.732C129.724 184.222 129.338 181.518 129.338 178.685C129.338 177.827 129.37 176.969 129.445 176.142C129.638 173.814 130.099 171.604 130.774 169.533V169.522C131.825 166.325 133.4 163.492 135.383 161.185C136.648 159.715 138.073 158.46 139.627 157.473C141.342 156.379 143.229 155.617 145.201 155.252C152.886 158.138 158.492 167.205 158.492 177.956Z" fill="#6F4849"/>
    <path d="M139.637 157.462C138.093 158.449 136.657 159.705 135.392 161.175L128.318 159.383C128.468 156.196 131.47 155.241 133.163 155.906L139.637 157.462Z" fill="#5B3E4F"/>
    <path d="M132.8 192.43L126.497 194.265C123.571 195.22 122.607 188.986 123.089 188.589L130.452 186.711C131.031 188.771 131.824 190.692 132.8 192.43Z" fill="#5B3E4F"/>
    <path d="M130.795 169.512C130.109 171.593 129.659 173.803 129.466 176.132L121.577 175.048C119.884 172.087 121.835 168.954 122.885 168.954L130.795 169.512Z" fill="#5B3E4F"/>
    <path d="M127.301 201.11L127.88 205.777L163.464 204.253V199.736L127.301 201.11Z" fill="#5B3E4F"/>
    <path d="M163.465 217.676C163.465 217.676 132.425 217.848 130.442 217.676C128.459 217.505 128.405 212.698 127.301 209.339C126.197 205.992 123.861 201.239 127.301 201.11C130.742 200.981 130.978 207.118 131.631 209.339C132.285 211.571 130.678 213.309 137.409 212.966C144.14 212.612 163.476 212.966 163.476 212.966V217.676H163.465Z" fill="#8C7A7D"/>
    <path d="M223.432 129.555C223.432 129.555 223.357 130.413 223.153 131.615C222.682 134.243 221.052 139.082 218.384 139.136C214.493 139.211 183.345 139.276 176.796 139.64C171.234 139.952 155.467 144.737 151.448 146.271C148.929 147.237 146.614 144.329 145.07 141.25C144.148 139.404 143.495 137.484 143.248 136.304L146.764 135.273C146.764 135.273 147.042 136.035 147.482 137.065C148.393 139.222 150.054 142.591 151.437 142.795C153.505 143.085 164.524 136.808 176.979 135.413C182.97 134.748 207.311 135.381 213.742 135.595C217.097 135.703 218.48 134.072 219.016 132.473C219.53 130.992 219.337 129.555 219.337 129.555H223.432Z" fill="#8C7A7D"/>
    <path d="M180.162 137.999C180.216 140.252 176.786 140.102 176.496 137.999L176.303 132.151L176.207 129.19H180.162C180.162 129.19 180.151 130.563 180.151 132.248C180.141 134.404 180.13 137.065 180.162 137.999Z" fill="#A7908B"/>
    <path d="M147.482 137.055C146.678 137.859 145.585 139.576 145.07 141.239C144.148 139.394 143.495 137.473 143.248 136.293L146.764 135.263C146.764 135.263 147.032 136.024 147.482 137.055Z" fill="#522B35"/>
    <path d="M180.162 129.19C180.162 129.19 180.151 130.563 180.151 132.248C178.833 131.593 177.407 131.636 176.303 132.151L176.207 129.19H180.162Z" fill="#522B35"/>
    <path d="M223.432 129.555C223.432 129.555 223.357 130.413 223.153 131.615C221.899 131.658 220.313 132.012 219.016 132.473C219.53 130.992 219.337 129.555 219.337 129.555H223.432Z" fill="#522B35"/>
    <path d="M142.016 133.814C140.259 134.469 141.555 137.237 142.895 136.69C145.017 135.831 166.09 130.048 173.485 129.866C183.603 129.619 225.994 130.488 225.994 130.488C228.846 130.381 228.042 126.69 226.069 126.604C223.797 126.497 180.131 125.821 173.046 126.389C165.447 126.99 154.514 129.19 142.016 133.814Z" fill="#A7908B"/>
    <path d="M258.912 168.964C258.504 171.421 256.993 174.018 255.343 174.265C252.899 174.629 248.526 175.37 246.532 172.312C246.339 172.022 246.168 171.679 246.018 171.303C244.249 166.679 255.921 162.923 258.129 165.123C258.976 165.971 259.158 167.441 258.912 168.964Z" fill="#5B3E4F"/>
    <path d="M258.911 168.964C258.504 171.421 256.992 174.018 255.342 174.264C252.898 174.629 248.525 175.37 246.531 172.312C253.069 171.625 257.282 171.185 258.911 168.964Z" fill="#522B35"/>
    <path d="M282.836 221.088C282.547 223.009 282.118 224.865 281.56 226.582C280.66 229.35 279.428 231.764 277.82 233.47C277.08 234.286 276.234 234.94 275.312 235.402C271.357 237.376 267.455 238.138 264.54 238.406C264.508 238.395 264.486 238.406 264.454 238.406C261.785 238.642 259.942 238.449 259.631 238.417C259.599 238.417 259.588 238.417 259.588 238.417L261.431 196.721V196.636C261.431 196.636 268.334 196.11 276.008 196.743C277.948 196.893 279.513 198.342 280.703 200.584C281.582 202.269 282.257 204.414 282.697 206.796C283.04 208.61 283.243 210.563 283.318 212.569C283.426 215.391 283.275 218.309 282.836 221.088Z" fill="#855D60"/>
    <path d="M282.835 221.088C282.546 223.009 282.117 224.865 281.56 226.582C275 228.224 269.062 228.728 265.354 228.867C265.922 227 266.436 224.94 266.865 222.805C270.509 222.58 275.89 222.097 282.835 221.088Z" fill="#5B3E4F"/>
    <path d="M268.15 213.556C268.3 211.388 268.354 209.285 268.247 207.343C271.698 207.086 276.521 206.839 282.695 206.807C283.038 208.62 283.242 210.573 283.317 212.579C278.558 212.858 272.577 213.255 268.15 213.556Z" fill="#5B3E4F"/>
    <path d="M280.713 200.584C276.586 200.723 271.474 200.917 267.261 201.088C266.233 197.934 264.378 196.11 261.441 196.711V196.625C261.441 196.625 268.344 196.099 276.018 196.732C277.958 196.904 279.523 198.342 280.713 200.584Z" fill="#5B3E4F"/>
    <path d="M268.151 213.556C267.926 216.614 267.476 219.79 266.865 222.805C266.436 224.94 265.922 227 265.354 228.867C264.743 230.927 264.057 232.762 263.339 234.253C262.245 236.56 261.066 238.073 259.93 238.363C259.834 238.395 259.737 238.406 259.641 238.406C259.619 238.416 259.609 238.416 259.598 238.416C258.633 238.449 257.765 238.331 256.972 238.094H256.94C245.31 234.629 250.98 204.339 258.869 197.912C259.426 197.451 260.016 197.118 260.595 196.925C260.884 196.829 261.174 196.753 261.442 196.71C264.378 196.11 266.233 197.923 267.262 201.088C267.83 202.816 268.151 204.962 268.258 207.344C268.355 209.296 268.312 211.389 268.151 213.556Z" fill="#522B35"/>
    <path d="M257.261 181.282C257.261 181.282 243.005 166.507 227.303 142.248C224.141 137.355 194.151 137.355 173.647 139.801C170.764 140.145 167.58 140.906 164.419 141.851C154.643 144.79 145.04 149.544 145.04 149.544C141.085 150.81 140.227 151.003 138.995 157.956C137.762 164.919 132.832 207.687 137.301 214.908C137.73 215.327 139.048 215.81 140.978 216.314C143.882 217.086 148.202 217.923 152.95 218.739C162.746 220.391 174.451 221.915 179.746 222.365C180.346 222.408 180.871 222.451 181.3 222.462C185.18 222.644 186.177 220.391 191.664 218.299C194.816 217.097 199.457 215.949 206.97 215.337C210.497 215.059 214.666 214.887 219.618 214.898C235.824 215.659 273.628 209.898 275.021 205.026C273.338 188.395 277.647 179.157 257.261 181.282ZM157.334 148.363C157.334 148.363 170.785 141.239 173.722 149.469C177.398 159.758 182.522 184.007 182.522 184.007C182.522 184.007 169.66 188.417 157.452 182.301C154.783 168.728 157.334 148.363 157.334 148.363ZM191.118 178.911C191.118 178.911 185.877 165.413 181.932 156.26C177.988 147.097 174.451 143.353 178.781 142.859C178.781 142.859 209.264 142.312 216.853 142.312C224.891 142.312 226.349 146.454 229.607 151.7C232.769 156.775 243.177 172.473 243.177 172.473L191.118 178.911Z" fill="#CE6659"/>
    <path d="M199.113 178.299C199.113 178.299 213.637 185.338 228.642 187.162C243.648 188.986 257.893 182.923 257.893 182.923L256.156 178.696C240.679 181.668 236.392 183.621 226.316 180.853C216.241 178.095 214.58 169.951 209.682 170.338C199.896 171.121 199.113 178.299 199.113 178.299Z" fill="#BD4837"/>
    <path d="M207.367 170.67C206.135 171.593 224.613 182.912 232.92 182.118C244.753 180.97 256.168 178.696 256.168 178.696C256.168 178.696 256.093 176.378 237.464 168.503C237.046 168.32 236.564 168.277 236.114 168.277C215.899 168.503 207.367 170.67 207.367 170.67Z" fill="#CE6659"/>
    <path d="M188.717 192.612C184.794 178.9 179.092 160.295 174.237 149.469C170.528 140.81 168.545 140.799 165.373 141.583C153.947 144.372 145.04 149.544 145.04 149.544C141.085 150.81 140.228 151.003 138.995 157.956C138.277 162.012 136.305 178.181 135.662 192.419C135.201 202.655 135.426 211.883 137.302 214.909C137.73 215.327 139.049 215.81 140.978 216.314C143.883 217.087 148.202 217.924 152.95 218.739C162.747 220.391 174.451 221.915 179.746 222.366C180.346 222.409 180.872 222.451 181.3 222.462C185.18 222.645 186.177 220.391 191.665 218.299C192.747 213.321 193.455 209.898 193.455 209.898C193.455 209.898 191.558 202.537 188.717 192.612ZM155.716 147.87C155.716 147.87 169.607 139.125 173.144 149.469C176.681 159.812 181.943 184.007 181.943 184.007C181.943 184.007 167.924 188.417 155.716 182.301C153.047 168.728 155.716 147.87 155.716 147.87Z" fill="#B3312C"/>
    <path d="M193.476 209.898C193.476 209.898 192.757 213.321 191.686 218.299C186.187 220.391 185.19 222.645 181.321 222.462C180.892 222.441 180.367 222.409 179.767 222.366C174.472 221.915 162.768 220.402 152.971 218.739C148.212 217.924 143.903 217.087 140.999 216.314C139.069 215.799 137.751 215.327 137.322 214.909C135.447 211.883 135.232 202.655 135.682 192.419C155.286 200.595 168.834 181.668 188.727 192.623C191.557 202.537 193.476 209.898 193.476 209.898Z" fill="#A2272A"/>
    <path d="M153.058 218.663C148.299 217.848 143.99 217.011 141.085 216.238C140.721 210.97 139.746 193.062 143.604 192.912C148.138 192.741 148.899 193.084 149.649 196.743C150.4 200.412 150.132 216.324 153.058 218.663Z" fill="#522B35"/>
    <path d="M163.379 221.035C163.379 222.28 163.314 223.503 163.186 224.726C162.95 226.84 162.521 228.868 161.846 230.735C160.324 234.973 147.826 236.464 146.176 235.477C146.176 235.477 137.805 201.604 137.805 200.896V200.885C138.255 198.117 145.983 197.516 153.453 197.591C154.847 197.602 156.24 198.567 157.526 200.188C158.052 200.864 158.566 201.647 159.048 202.527C161.106 206.25 162.693 211.668 163.186 217.248C163.261 218.009 163.304 218.76 163.336 219.533C163.368 220.027 163.379 220.531 163.379 221.035Z" fill="#855D60"/>
    <path d="M147.526 235.595C142.456 237.526 131.523 208.052 137.815 200.874C138.78 199.919 140.023 201.185 141.32 203.717C141.684 204.425 142.049 205.23 142.413 206.121C144 209.962 145.586 215.262 146.733 220.316C146.84 220.831 146.958 221.346 147.065 221.839C148.533 228.835 149.069 235.004 147.526 235.595Z" fill="#5B3E4F"/>
    <path d="M139.583 210.048C138.618 213.664 144.042 228.106 145.275 226.239C146.496 224.372 140.548 206.443 139.583 210.048Z" fill="#522B35"/>
    <path d="M159.594 203.557C159.594 203.557 150.451 204.576 142.863 207.258C142.498 206.368 141.673 204.426 141.309 203.718C147.45 201.475 157.525 200.188 157.525 200.188C158.072 200.863 159.112 202.666 159.594 203.557Z" fill="#6F4849"/>
    <path d="M163.379 221.035C163.379 222.28 163.315 223.503 163.186 224.726C158.727 225.509 150.571 226.518 147.837 225.981C147.784 225.724 147.644 224.919 147.505 224.125C147.441 223.793 147.398 223.481 147.323 223.138C147.291 222.977 147.269 222.827 147.237 222.709C147.216 222.591 147.194 222.494 147.184 222.43C149.284 222.43 158.759 221.743 163.379 221.035Z" fill="#6F4849"/>
    <path d="M188.632 192.569C184.698 178.846 178.996 160.22 174.13 149.383C170.422 140.724 168.439 140.713 165.266 141.497C153.84 144.286 144.933 149.458 144.933 149.458C140.978 150.724 140.121 150.917 138.888 157.87C138.17 161.926 136.294 178.16 135.662 192.408C135.651 192.526 135.651 192.655 135.641 192.773C135.941 192.762 136.252 192.762 136.552 192.762C141.043 192.677 145.759 192.666 146.927 192.934C147.667 193.106 148.331 193.428 148.835 194.393C149.392 195.423 149.767 197.204 149.885 200.316C150.035 204.232 150.775 211.754 151.375 218.395C151.857 218.492 152.34 218.567 152.833 218.653C162.629 220.305 174.334 221.829 179.629 222.279C180.229 222.322 180.754 222.365 181.183 222.376C185.063 222.558 186.06 220.305 191.547 218.213C192.63 213.234 193.337 209.812 193.337 209.812C193.337 209.812 191.462 202.473 188.632 192.569ZM155.609 147.784C155.609 147.784 169.5 139.04 173.037 149.383C176.574 159.726 181.837 183.921 181.837 183.921C181.837 183.921 167.817 188.331 155.609 182.215C152.94 168.642 155.609 147.784 155.609 147.784Z" fill="#B3312C"/>
    <path d="M135.673 192.408C135.973 192.537 136.273 192.655 136.573 192.762C136.273 192.762 135.962 192.762 135.662 192.773C135.662 192.655 135.662 192.537 135.673 192.408Z" fill="#A2272A"/>
    <path d="M193.37 209.812C193.37 209.812 192.652 213.234 191.58 218.213C186.081 220.305 185.084 222.558 181.215 222.376C180.786 222.354 180.261 222.322 179.661 222.279C174.366 221.829 162.662 220.316 152.865 218.653C152.372 218.567 151.89 218.492 151.407 218.395C150.807 211.764 150.068 204.232 149.918 200.316C149.8 197.204 149.425 195.423 148.867 194.393C175.32 203.213 188.654 192.559 188.654 192.559C191.462 202.473 193.37 209.812 193.37 209.812Z" fill="#A2272A"/>
    <path d="M151.032 214.382C152.811 216.775 175.266 221.067 178.6 221.271C179.511 221.453 181.301 228.02 178.6 227.741C178.203 227.698 154.173 224.436 148.921 219.49C145.577 215.069 151.032 214.382 151.032 214.382Z" fill="#A7908B"/>
    <path d="M189.2 192.881C175.706 196.4 176.831 213.17 177.399 221.271C177.957 229.265 180.272 227.752 180.272 227.752C180.636 227.902 176.788 201.786 189.2 198.106C198.397 195.381 204.259 208.546 204.259 208.546C208.332 208.235 207.089 188.203 189.2 192.881Z" fill="#8C7A7D"/>
    <path d="M207.089 215.263C186.5 216.915 187.336 222.988 181.237 222.699C180.808 222.677 180.637 222.784 180.026 222.742C179.415 208.696 181.205 200.767 189.243 197.066C196.896 193.546 202.148 202.559 207.089 215.263Z" fill="#522B35"/>
    <path d="M211.14 233.631C211.086 234.608 210.99 235.52 210.872 236.378C210.625 238.245 210.239 239.844 209.843 241.153C209.232 243.181 208.567 244.511 208.289 245.069C205.673 248.513 193.765 250.423 189.821 249.339C189.821 249.339 180.7 210.155 180.764 209.361V209.35C181.45 206.754 195.448 199.5 203.744 208.138C204.719 209.157 205.609 210.37 206.392 211.861C206.402 211.861 206.402 211.861 206.402 211.861C206.681 212.387 206.949 212.945 207.195 213.535C208.396 216.357 209.275 219.018 209.886 221.507C210.261 222.988 210.54 224.393 210.743 225.745C210.904 226.861 211.022 227.923 211.097 228.932C211.204 230.627 211.215 232.194 211.14 233.631Z" fill="#855D60"/>
    <path d="M190.336 249.307C184.023 251.571 173.937 213.502 180.936 208.974C181.879 208.577 182.951 209.522 184.044 211.356C184.666 212.386 185.288 213.717 185.899 215.251C186.992 217.955 188.042 221.313 188.953 224.833C189.318 226.238 189.661 227.665 189.971 229.103C190.711 232.526 191.29 235.949 191.622 238.985C191.783 240.498 191.89 241.925 191.901 243.191C191.976 246.549 191.515 248.888 190.336 249.307Z" fill="#5B3E4F"/>
    <path d="M183.626 222.516C182.04 226.378 186.081 238.9 187.142 237.838C188.953 236.024 184.891 219.436 183.626 222.516Z" fill="#522B35"/>
    <path d="M206.371 211.872C203.906 211.453 193.156 212.043 185.899 215.251C185.288 213.728 184.667 212.397 184.045 211.357C191.859 208.545 200.551 208.17 203.734 208.148C204.71 209.168 205.599 210.391 206.371 211.872Z" fill="#6F4849"/>
    <path d="M210.873 236.378C210.627 238.245 210.241 239.844 209.844 241.153C206.457 241.925 198.676 243.61 191.902 243.191C191.88 241.925 191.784 240.498 191.623 238.985C201.473 238.309 208.119 236.99 210.873 236.378Z" fill="#6F4849"/>
    <path d="M210.722 225.756C208.182 226.206 197.624 228.106 189.971 229.103C189.661 227.676 189.318 226.249 188.953 224.833C198.3 223.063 207.056 221.882 209.865 221.518C210.24 222.998 210.518 224.404 210.722 225.756Z" fill="#6F4849"/>
    <path d="M272.824 203.116C277.894 203.524 276.49 216.12 272.921 217.633C269.351 219.146 212.994 231.807 208.225 221.228C203.455 210.648 201.697 205.788 201.697 205.788C216.917 213.138 217.453 214.468 236.007 212.601C254.549 210.745 272.02 207.912 272.824 203.116Z" fill="#A7908B"/>
    <path d="M210.872 197.858C200.326 207.622 226.703 214.264 230.98 211.657L226.65 196.238C226.65 196.238 213.059 195.83 210.872 197.858Z" fill="#FCF6E5"/>
    <path d="M220.208 208.298C223.239 208.298 225.696 205.91 225.696 202.965C225.696 200.02 223.239 197.633 220.208 197.633C217.178 197.633 214.721 200.02 214.721 202.965C214.721 205.91 217.178 208.298 220.208 208.298Z" fill="#F2D16E"/>
    <path d="M272.975 192.955C276.705 204.146 263.286 207.118 263.286 207.118L260.992 193.653C260.992 193.653 271.689 189.093 272.975 192.955Z" fill="#FCF6E5"/>
    <path d="M268.098 202.462C270.223 202.462 271.946 200.334 271.946 197.709C271.946 195.084 270.223 192.956 268.098 192.956C265.973 192.956 264.25 195.084 264.25 197.709C264.25 200.334 265.973 202.462 268.098 202.462Z" fill="#F2D16E"/>
    <path d="M232.545 192.483L228.59 193.867L234.185 215.959C234.185 215.959 241.12 216.077 249.33 214.704C257.529 213.331 264.818 210.101 264.818 210.101L258.676 188.856L232.545 192.483Z" fill="#522B35"/>
    <path d="M261.005 195.342L231.008 199.304L231.127 200.208L261.125 196.246L261.005 195.342Z" fill="#8C7A7D"/>
    <path d="M232.642 208.481L232.428 207.59C232.749 207.515 257.123 203.631 262.01 202.848L262.15 203.749C252.16 205.337 233.124 208.373 232.642 208.481Z" fill="#8C7A7D"/>
    <path d="M227.304 194.382C231.73 194.919 230.337 198.9 228.075 198.385C225.353 197.762 207.089 192.752 204.088 196.904C201.633 200.294 199.35 205.992 226.21 212.494C237.1 215.133 259.48 212.076 268.676 207.483C273.157 205.241 281.817 200.412 279.234 190.82C278.076 186.528 271.013 191.829 262.138 194.973C259.866 195.777 258.312 193.041 260.445 192.301C264.357 190.37 276.715 184.715 280.156 186.464C284.454 188.631 285.386 204.833 270.091 211.067C253.006 218.03 231.344 219.039 214.356 213.728C205.492 210.96 194.516 203.052 201.28 193.878C205.106 188.664 227.304 194.382 227.304 194.382Z" fill="#C4ACA8"/>
    <path d="M229.308 232.923C231.227 233.878 234.228 229.371 236.082 220.884C237.465 214.586 231.281 195.809 231.281 195.809C231.281 195.809 230.616 193.502 235.15 193.105C239.684 192.708 256.233 190.702 256.233 190.702C256.715 190.477 258.28 189.994 258.773 192.301C259.309 194.844 263.414 209.543 263.307 215.198C263.146 224.071 258.87 227.944 260.563 229.522C264.025 232.74 267.316 218.17 266.78 213.309C266.158 207.698 262.246 195.112 261.828 190.208C261.41 185.305 260.992 185.369 253.703 185.906C233.017 189.243 227.036 186.249 227.154 193.878C227.272 201.507 234.067 215.316 231.956 221.163C229.405 228.234 227.679 232.107 229.308 232.923Z" fill="#8C7A7D"/>
    <path d="M153.936 148.707C151.224 168.857 153.057 182.301 153.057 182.301C153.057 182.301 147.194 181.336 143.946 179.909C143.035 179.501 142.328 179.072 142.017 178.61C140.592 176.507 140.442 153.857 144.472 152.119C148.491 150.402 153.936 148.664 153.936 148.664C153.947 148.686 153.947 148.696 153.936 148.707Z" fill="#CE6659"/>
    <path d="M152.533 165.853C152.222 176.11 153.058 182.301 153.058 182.301C153.058 182.301 147.195 181.336 143.947 179.909C143.829 179.812 143.733 179.715 143.669 179.608C143.347 179.136 143.09 177.516 142.94 175.284C142.736 172.355 142.715 168.374 142.929 164.512C143.283 158.364 144.269 152.516 146.187 151.701C148.524 150.692 151.697 149.512 153.937 148.707C153.637 150.939 153.39 153.095 153.197 155.155C152.822 159.083 152.608 162.655 152.533 165.853Z" fill="#91B8B4"/>
    <path d="M181.932 184.007C181.932 184.007 168.588 188.696 157.451 182.301C157.173 181.046 156.948 179.737 156.787 178.406C156.165 173.664 156.165 168.578 156.272 164.029C160.796 162.645 166.391 161.486 172.114 165.177C174.429 166.668 176.755 168.954 179.049 172.355C180.667 179.158 181.932 184.007 181.932 184.007Z" fill="#91B8B4"/>
    <path d="M185.255 182.44C185.319 184.103 184.472 185.144 184.472 185.144C184.472 185.144 170.689 193.867 166.98 186.056C166.369 183.47 166.294 181.539 166.551 180.133C167.098 177.054 169.199 176.432 170.667 176.561C177.441 176.775 183.797 178.642 184.472 179.833C185.03 180.799 185.233 181.689 185.255 182.44Z" fill="#5B3E4F"/>
    <path d="M185.255 182.441C185.319 184.104 184.472 185.144 184.472 185.144C184.472 185.144 170.689 193.867 166.98 186.056C166.369 183.471 166.294 181.539 166.551 180.134C167.366 186.335 171.01 186.239 172.489 186.335C173.947 186.411 182.554 183.685 185.255 182.441Z" fill="#522B35"/>
    <path d="M285.695 243.396C284.205 257.323 264.151 277.365 199.52 268.063C199.52 268.063 119.401 269.275 115.22 243.621C115.145 243.17 115.113 242.709 115.113 242.248C115.113 233.042 129.615 223.578 139.605 234.769C144.428 232.205 159.659 234.254 171.556 241.239C159.98 232.248 160.023 226.067 166.283 221.969C167.065 221.443 167.944 220.96 168.919 220.51C182.36 216.325 182.821 246.84 187.655 248.213C192.489 249.587 189.498 235.52 199.52 235.939C209.542 236.346 204.944 244.576 204.944 244.576C210.549 239.78 212.918 242.119 212.854 244.415C221.117 236.55 240.453 237.387 247.935 244.49C258.106 229.962 275.095 223.943 283.423 234.2C285.181 236.379 286.103 239.673 285.695 243.396Z" fill="#BE8162"/>
    <path d="M180.293 245.274C180.293 245.274 178.332 245.982 171.547 241.239C159.971 232.248 160.014 226.067 166.274 221.969C164.334 231.454 180.293 245.274 180.293 245.274Z" fill="#A4676A"/>
    <path d="M285.696 243.396C285.043 249.533 280.787 256.851 270.691 262.323C270.691 262.323 270.691 262.323 270.68 262.333C257.872 269.286 235.663 273.267 199.51 268.063C199.51 268.063 159.145 268.675 134.225 259.844C124.032 256.239 116.422 251.057 115.211 243.621C115.136 243.17 115.104 242.709 115.104 242.248C126.776 266.7 163.422 246.851 163.422 246.851C163.422 246.851 177.548 259.179 182.436 254.029C187.334 248.889 186.166 265.853 217.421 259.705C248.675 253.567 253.702 256.346 253.702 256.346C277.057 262.108 284.635 247.795 285.696 243.396Z" fill="#A4676A"/>
    <path d="M270.69 262.323C257.871 269.286 235.663 273.267 199.51 268.063C199.51 268.063 159.145 268.675 134.225 259.844C165.458 267.033 200.571 264.673 200.571 264.673C200.571 264.673 225.33 271.293 270.69 262.323Z" fill="#855D60"/>
    <path d="M125.103 209.404C125.339 210.595 125.489 211.658 125.532 212.58C126.143 222.537 117 217.763 115.017 213.889C112.949 209.855 93.9986 213.557 97.5035 200.96C97.675 200.37 97.8893 199.737 98.1573 199.061C102.016 189.458 122.284 195.37 125.103 209.404Z" fill="#BE8162"/>
    <path d="M125.253 212.677C125.35 212.644 125.446 212.623 125.532 212.58C126.143 222.537 117 217.763 115.017 213.889C112.949 209.855 93.9986 213.557 97.5035 200.96C97.75 203.267 104.428 207.784 109.069 209.78C111.963 211.024 125.403 215.499 125.253 212.677Z" fill="#A4676A"/>
    <path d="M109.894 183.943C110.334 186.346 105.746 188.385 100.087 185.306C96.357 183.289 95.1351 180.896 95.1565 178.707C95.1887 176.014 97.1501 173.621 98.6185 172.677C101.855 170.596 105.157 175.306 105.457 177.656C105.628 178.975 106.925 180.349 108.061 181.561C108.972 182.495 109.787 183.331 109.894 183.943Z" fill="#BE8162"/>
    <path d="M109.894 183.943C110.334 186.346 105.746 188.385 100.087 185.306C96.357 183.289 95.1351 180.896 95.1565 178.707C101.202 182.237 105.425 182.301 108.072 181.561C108.972 182.495 109.787 183.331 109.894 183.943Z" fill="#A4676A"/>
    <path d="M92.4561 189.726C91.2342 191.347 84.1386 189.211 85.532 185.595C85.5749 185.445 85.6499 185.306 85.7357 185.156C86.3895 183.997 89.337 185.392 91.1592 187.033C92.2631 188.031 92.9384 189.093 92.4561 189.726Z" fill="#BE8162"/>
    <path d="M92.4561 189.727C91.2342 191.347 84.1386 189.212 85.532 185.596C87.5685 187.956 89.9373 187.506 91.1592 187.033C92.2631 188.031 92.9384 189.094 92.4561 189.727Z" fill="#A4676A"/>
    <path d="M273.284 167.355C272.888 169.254 271.505 171.143 268.793 171.497C266.8 171.765 266.51 169.651 267.132 167.462C267.657 165.617 268.858 163.707 270.251 163.16C272.555 162.248 273.809 164.823 273.284 167.355Z" fill="#BE8162"/>
    <path d="M273.284 167.355C272.888 169.254 271.505 171.143 268.793 171.497C266.8 171.765 266.51 169.651 267.132 167.462C269.308 168.471 271.816 168.331 273.284 167.355Z" fill="#A4676A"/>
    <path d="M273.369 173.513C273.39 173.481 273.401 173.449 273.412 173.417L273.401 173.513H273.369Z" fill="#A4676A"/>
    <path d="M273.369 173.513C273.39 173.481 273.401 173.449 273.412 173.417L273.401 173.513H273.369Z" fill="#A4676A"/>
    <path d="M289.673 169.619C289.373 174.458 284.368 181.668 277.701 181.904C273.907 182.044 273.81 177.409 275.997 173.01C277.744 169.501 280.938 166.143 284.861 165.456C288.451 164.834 289.866 166.829 289.673 169.619Z" fill="#BE8162"/>
    <path d="M289.674 169.63C289.373 174.458 284.368 181.668 277.701 181.904C273.907 182.044 273.81 177.409 275.997 173.01C278.58 176.497 285.986 175.724 289.674 169.63Z" fill="#A4676A"/>
</svg>
